<?xml version="1.0" encoding="UTF-8"?>
<svg width="140px" height="140px" viewBox="0 0 140 140" version="1.1" xmlns="http://www.w3.org/2000/svg" xmlns:xlink="http://www.w3.org/1999/xlink">
    <!-- Generator: Sketch 55 (78076) - https://sketchapp.com -->
    <title>编组</title>
    <desc>Created with Sketch.</desc>
    <defs>
        <rect id="path-1" x="0" y="0" width="140" height="140" rx="12"></rect>
        <mask id="mask-2" maskContentUnits="userSpaceOnUse" maskUnits="objectBoundingBox" x="0" y="0" width="140" height="140" fill="white">
            <use xlink:href="#path-1"></use>
        </mask>
    </defs>
    <g id="页面1" stroke="none" stroke-width="1" fill="none" fill-rule="evenodd">
        <g id="农机作业安全管理" transform="translate(-118.000000, -235.000000)">
            <g id="编组" transform="translate(118.000000, 235.000000)">
                <use id="矩形备份-6" stroke="#3196FD" mask="url(#mask-2)" stroke-width="4" fill="#F6F7F8" stroke-dasharray="10,10" xlink:href="#path-1"></use>
                <path d="M69.7183056,53.4282274 C63.0688651,53.4282274 57.6584953,58.8744368 57.6584953,65.5691926 C57.6584953,72.2639334 63.0682822,77.7098589 69.7183056,77.7098589 C76.3683588,77.7098589 81.7781158,72.2634925 81.7781158,65.5691926 C81.7781158,58.8749076 76.368172,53.4282274 69.7183056,53.4282274 Z M95.130577,47.1040047 L82.9411131,44.104349 L82.9411131,41.6017788 L82.9411133,41.6013107 C82.9419113,39.2900675 81.0760506,37.4120395 78.7648523,37.3978187 L59.4265757,37.3978187 L59.4265755,37.3978187 C57.1154668,37.4123812 55.2499483,39.2906205 55.2510842,41.601774 L55.2510842,44.0154249 L43.8058399,47.2016399 L43.8291025,47.2109756 L43.8291025,47.2109756 C42.0311609,47.7343386 40.7940181,49.3810569 40.7919482,51.2536223 L40.7919482,82.7253912 L40.7919482,82.7252607 C40.7908199,85.0363843 42.6562337,86.914629 44.967305,86.929343 L94.4687824,86.929343 L94.4687822,86.929343 C96.7799207,86.9147812 98.6454841,85.0365711 98.6444229,82.7253877 L98.6444229,51.2536188 L98.6444231,51.2538761 C98.6431938,49.1983235 97.157867,47.4441203 95.1306439,47.1040391 L95.130577,47.1040047 Z M69.7183056,82.6879999 C60.342065,82.6879999 52.7140942,75.0083918 52.7140942,65.5688563 C52.7140942,56.1292461 60.342065,48.4498622 69.7183056,48.4498622 C79.0945461,48.4498622 86.7225169,56.1294703 86.7225169,65.5688563 C86.7225169,75.008317 79.0943966,82.6879999 69.7183056,82.6879999 Z M88.3706506,55.401691 L88.3706507,55.401691 C86.3544724,55.4152993 84.7089991,53.7918929 84.695391,51.7757071 C84.6817827,49.7595288 86.3051891,48.1140554 88.3213749,48.1004474 C90.3375532,48.0868391 91.9830265,49.7102455 91.9966346,51.7264312 C91.9966902,51.7346678 91.9967179,51.7429044 91.9967177,51.7511411 L91.9967178,51.7511614 C92.0034798,53.7605319 90.3800447,55.3949306 88.3706742,55.4016935 C88.3706604,55.4016935 88.3706467,55.4016936 88.370633,55.4016936 L88.3706506,55.401691 Z" id="形状" fill="#3196FD" fill-rule="nonzero"></path>
                <text id="上传/拍照" font-family="PingFangSC-Regular, PingFang SC" font-size="14" font-weight="normal" fill="#333333">
                    <tspan x="37.5" y="110">上传/拍照</tspan>
                </text>
            </g>
        </g>
    </g>
</svg>