<?xml version="1.0" encoding="UTF-8"?>
<svg width="140px" height="140px" viewBox="0 0 140 140" version="1.1" xmlns="http://www.w3.org/2000/svg" xmlns:xlink="http://www.w3.org/1999/xlink">
    <!-- Generator: Sketch 55 (78076) - https://sketchapp.com -->
    <title>编组 2备份 5</title>
    <desc>Created with Sketch.</desc>
    <defs>
        <rect id="path-1" x="0" y="0" width="140" height="140" rx="12"></rect>
        <mask id="mask-2" maskContentUnits="userSpaceOnUse" maskUnits="objectBoundingBox" x="0" y="0" width="140" height="140" fill="white">
            <use xlink:href="#path-1"></use>
        </mask>
    </defs>
    <g id="页面1" stroke="none" stroke-width="1" fill="none" fill-rule="evenodd">
        <g id="配药打药" transform="translate(-118.000000, -235.000000)">
            <g id="编组-2备份-5" transform="translate(118.000000, 235.000000)">
                <g id="编组-2备份-3">
                    <use id="矩形备份-6" stroke="#18B970" mask="url(#mask-2)" stroke-width="4" fill="#F6F7F8" stroke-dasharray="10,10" xlink:href="#path-1"></use>
                    <g id="照片备份" transform="translate(6.000000, 36.000000)">
                        <g id="拍照" transform="translate(34.000000, -0.000000)" fill="#18B970" fill-rule="nonzero">
                            <path d="M29.7183056,17.4282274 C23.0688651,17.4282274 17.6584953,22.8744368 17.6584953,29.5691926 C17.6584953,36.2639334 23.0682822,41.7098589 29.7183056,41.7098589 C36.3683588,41.7098589 41.7781158,36.2634925 41.7781158,29.5691926 C41.7781158,22.8749076 36.368172,17.4282274 29.7183056,17.4282274 Z M55.130577,11.1040047 L42.9411131,8.104349 L42.9411131,5.60177884 L42.9411133,5.60131072 C42.9419113,3.29006754 41.0760506,1.41203954 38.7648523,1.39781873 L19.4265757,1.39781873 L19.4265755,1.39781874 C17.1154668,1.4123812 15.2499483,3.29062053 15.2510842,5.60177404 L15.2510842,8.01542494 L3.80583989,11.2016399 L3.82910253,11.2109756 L3.82910251,11.2109756 C2.03116088,11.7343386 0.794018131,13.3810569 0.791948156,15.2536223 L0.791948156,46.7253912 L0.791948218,46.7252607 C0.790819939,49.0363843 2.65623368,50.914629 4.96730498,50.929343 L54.4687824,50.929343 L54.4687822,50.929343 C56.7799207,50.9147812 58.6454841,49.0365711 58.6444229,46.7253877 L58.6444229,15.2536188 L58.6444231,15.2538761 C58.6431938,13.1983235 57.157867,11.4441203 55.1306439,11.1040391 L55.130577,11.1040047 Z M29.7183056,46.6879999 C20.342065,46.6879999 12.7140942,39.0083918 12.7140942,29.5688563 C12.7140942,20.1292461 20.342065,12.4498622 29.7183056,12.4498622 C39.0945461,12.4498622 46.7225169,20.1294703 46.7225169,29.5688563 C46.7225169,39.008317 39.0943966,46.6879999 29.7183056,46.6879999 Z M48.3706506,19.401691 L48.3706507,19.401691 C46.3544724,19.4152993 44.7089991,17.7918929 44.695391,15.7757071 C44.6817827,13.7595288 46.3051891,12.1140554 48.3213749,12.1004474 C50.3375532,12.0868391 51.9830265,13.7102455 51.9966346,15.7264312 C51.9966902,15.7346678 51.9967179,15.7429044 51.9967177,15.7511411 L51.9967178,15.7511614 C52.0034798,17.7605319 50.3800447,19.3949306 48.3706742,19.4016935 C48.3706604,19.4016935 48.3706467,19.4016936 48.370633,19.4016936 L48.3706506,19.401691 Z" id="形状"></path>
                        </g>
                        <text id="上传/拍照" font-family="SourceHanSansCN-Regular, Source Han Sans CN" font-size="14" font-weight="normal" fill="#333333">
                            <tspan x="32.256" y="74">上传/拍照</tspan>
                        </text>
                    </g>
                </g>
            </g>
        </g>
    </g>
</svg>