<?xml version="1.0" encoding="UTF-8"?>
<svg width="375px" height="150px" viewBox="0 0 375 150" version="1.1" xmlns="http://www.w3.org/2000/svg" xmlns:xlink="http://www.w3.org/1999/xlink">
    <!-- Generator: Sketch 55 (78076) - https://sketchapp.com -->
    <title>编组 2</title>
    <desc>Created with Sketch.</desc>
    <defs>
        <linearGradient x1="15.9781428%" y1="61.9589675%" x2="97.8759551%" y2="41.0660943%" id="linearGradient-1">
            <stop stop-color="#0067B4" offset="0%"></stop>
            <stop stop-color="#0BA55F" offset="46.9066723%"></stop>
            <stop stop-color="#B5D100" offset="100%"></stop>
        </linearGradient>
        <polygon id="path-2" points="2.55442671e-05 0.0638389831 6.90911118 0.0638389831 6.90911118 4.06779661 2.55442671e-05 4.06779661"></polygon>
        <polygon id="path-4" points="0.0941561684 0.0985423729 8.20343919 0.0985423729 8.20343919 4.57627119 0.0941561684 4.57627119"></polygon>
        <polygon id="path-6" points="0.108269376 0.0597711864 30.6869283 0.0597711864 30.6869283 29.8728814 0.108269376 29.8728814"></polygon>
        <polygon id="path-8" points="0.0395680697 0.0530847458 15.7331994 0.0530847458 15.7331994 6.22881356 0.0395680697 6.22881356"></polygon>
        <polygon id="path-10" points="0.0493259797 0.00742372881 14.4389225 0.00742372881 14.4389225 4.57627119 0.0493259797 4.57627119"></polygon>
        <polygon id="path-12" points="0.0900818578 0.0296313559 58.2971646 0.0296313559 58.2971646 11.9491525 0.0900818578 11.9491525"></polygon>
    </defs>
    <g id="页面1" stroke="none" stroke-width="1" fill="none" fill-rule="evenodd">
        <g id="工作台" transform="translate(0.000000, -108.000000)">
            <g id="编组-2" transform="translate(0.000000, 108.000000)">
                <rect id="矩形" fill="url(#linearGradient-1)" x="0" y="0" width="375" height="150"></rect>
                <text id="安-全-回-家" font-family="PingFangSC-Semibold, PingFang SC" font-size="18" font-weight="500" fill="#FFFFFF">
                    <tspan x="145.009" y="104">安 全 回 家</tspan>
                </text>
                <g id="编组" transform="translate(146.000000, 45.000000)">
                    <g transform="translate(0.000000, 25.872458)">
                        <mask id="mask-3" fill="white">
                            <use xlink:href="#path-2"></use>
                        </mask>
                        <g id="Clip-2"></g>
                        <path d="M6.90911118,4.06782203 L6.90911118,0.0638389831 C2.73032453,2.25688983 2.55442671e-05,4.06782203 2.55442671e-05,4.06782203 L6.90911118,4.06782203 Z" id="Fill-1" fill="#FEFEFE" mask="url(#mask-3)"></path>
                    </g>
                    <path d="M76.4976464,13.0705551 C76.4945811,13.0705551 76.4915158,13.070428 76.4883228,13.070428 L76.4883228,13.0705551 L72.6018903,13.0705551 L72.6018903,6.62665678 L76.4883228,6.62665678 L76.4883228,6.6267839 C76.4915158,6.6267839 76.4945811,6.62665678 76.4976464,6.62665678 C78.2854897,6.62665678 79.7349991,8.06907203 79.7349991,9.84847881 C79.7349991,11.6280127 78.2854897,13.0705551 76.4976464,13.0705551 M78.4522938,0.129622881 L78.4522938,0.127207627 L78.352288,0.127207627 L78.3520325,0.127207627 L78.3517771,0.127207627 L72.6018903,0.127207627 L65.5143779,0.127207627 L65.5143779,24.621572 C69.3520209,26.6900466 71.7536929,28.5658093 72.6018903,29.2703008 L72.6018903,19.1263602 L78.4522938,19.1263602 L78.4522938,19.1239449 C83.6772459,19.0699195 87.8967756,14.8397924 87.8967756,9.62665678 C87.8967756,4.41377542 83.6772459,0.183394068 78.4522938,0.129622881" id="Fill-3" fill="#FEFEFE"></path>
                    <g transform="translate(19.158200, 25.363983)">
                        <mask id="mask-5" fill="white">
                            <use xlink:href="#path-4"></use>
                        </mask>
                        <g id="Clip-6"></g>
                        <path d="M0.599804935,4.57629661 L7.11882961,4.57629661 L8.20343919,0.0985423729 C5.42984267,0.764771186 2.72457707,1.62663559 0.0941561684,2.68159322 L0.599804935,4.57629661 Z" id="Fill-5" fill="#FEFEFE" mask="url(#mask-5)"></path>
                    </g>
                    <g transform="translate(7.280116, 0.067373)">
                        <mask id="mask-7" fill="white">
                            <use xlink:href="#path-6"></use>
                        </mask>
                        <g id="Clip-8"></g>
                        <path d="M6.61631001,22.2084153 L6.61631001,7.90972881 L10.0664464,20.8373136 C14.0298949,19.3734153 17.7160604,18.4164661 21.0604435,17.9890932 C21.3400255,17.9532458 21.619863,17.9207034 21.8998282,17.8884153 L24.1788877,8.47909322 L24.1788877,17.6636695 C25.9660923,17.5186271 27.7488267,17.4448983 29.5067832,17.4448983 C29.900548,17.4448983 30.2939298,17.4498559 30.6869283,17.4571017 L30.6869283,0.0597711864 L19.7103013,0.0597711864 L15.5800488,17.111339 L11.0292099,0.0597711864 L0.108269376,0.0597711864 L0.108269376,25.2968898 L0.108269376,25.8689237 L0.108269376,29.8729068 L6.62167431,29.8729068 L6.61631001,22.2099407 L6.61631001,22.2084153 Z" id="Fill-7" fill="#FEFEFE" mask="url(#mask-7)"></path>
                    </g>
                    <path d="M51.864454,8.73616525 L55.4667065,20.3751483 C58.188065,21.239428 60.834962,22.2928602 63.3694642,23.5234958 C63.9659228,23.813072 64.5346659,24.1022669 65.0773538,24.3886653 L56.5347123,0.127182203 L47.1940679,0.127182203 L41.0221898,17.6554449 C43.6434148,17.8309958 46.2388401,18.1696398 48.7902015,18.669089 L51.864454,8.73616525 Z" id="Fill-9" fill="#FEFEFE"></path>
                    <g transform="translate(31.419448, 23.711441)">
                        <mask id="mask-9" fill="white">
                            <use xlink:href="#path-8"></use>
                        </mask>
                        <g id="Clip-12"></g>
                        <path d="M7.42467112,0.129991525 C7.1318061,0.143974576 6.83932424,0.159864407 6.54760871,0.177788136 C4.34352163,0.31329661 2.1732807,0.560415254 0.0395680697,0.918 L0.0395680697,6.22888983 L5.27729231,6.22888983 L6.54760871,6.22888983 L13.8823896,6.22888983 L15.7331994,0.248974576 C14.0728221,0.124271186 12.3559919,0.0530847458 10.5939483,0.0530847458 C9.53015733,0.0530847458 8.47390189,0.0796525424 7.42467112,0.129991525" id="Fill-11" fill="#FEFEFE" mask="url(#mask-9)"></path>
                    </g>
                    <g transform="translate(56.963716, 25.363983)">
                        <mask id="mask-11" fill="white">
                            <use xlink:href="#path-10"></use>
                        </mask>
                        <g id="Clip-14"></g>
                        <path d="M6.71727373,1.72022034 C4.86097184,1.15339831 2.60873382,0.545898305 0.0493259797,0.00742372881 L1.46332888,4.57632203 L8.5507135,4.57632203 L10.0684261,4.57632203 L14.4389225,4.57632203 C13.439503,4.12721186 11.6971286,3.39119492 9.36672511,2.58348305 C8.55275704,2.30140678 7.66841451,2.01068644 6.71727373,1.72022034" id="Fill-13" fill="#FEFEFE" mask="url(#mask-11)"></path>
                    </g>
                    <g transform="translate(14.304790, 17.991102)">
                        <mask id="mask-13" fill="white">
                            <use xlink:href="#path-12"></use>
                        </mask>
                        <g id="Clip-16"></g>
                        <path d="M14.1008569,0.569631356 C9.34719652,1.17725847 4.44129231,2.79636864 0.0900818578,4.62789407 L0.0900818578,11.6961992 C9.59842438,6.88170763 19.1613039,5.26488559 27.7086711,5.26488559 C45.1036784,5.26488559 58.2971646,11.9491653 58.2971646,11.9491653 C58.2971646,11.9491653 45.0181051,0.0296313559 22.4821864,0.0296313559 C19.8147263,0.0296313559 17.0210775,0.196283898 14.1008569,0.569631356" id="Fill-15" fill="#FEFEFE" mask="url(#mask-13)"></path>
                    </g>
                </g>
            </g>
        </g>
    </g>
</svg>