<?xml version="1.0" encoding="UTF-8"?>
<svg width="20px" height="20px" viewBox="0 0 20 20" version="1.1" xmlns="http://www.w3.org/2000/svg" xmlns:xlink="http://www.w3.org/1999/xlink">
    <!-- Generator: Sketch 55 (78076) - https://sketchapp.com -->
    <title>关 闭</title>
    <desc>Created with Sketch.</desc>
    <g id="页面1" stroke="none" stroke-width="1" fill="none" fill-rule="evenodd">
        <g id="用车" transform="translate(-178.000000, -586.000000)" fill="#999999" fill-rule="nonzero">
            <g id="关-闭" transform="translate(178.000000, 586.000000)">
                <path d="M19.0265969,19.8431686 L19.0265969,19.8431686 C18.8261686,19.84307 18.6339849,19.7633704 18.4923106,19.6215969 L0.292003698,1.42129003 L0.292003695,1.42129002 C-0.00307410385,1.12621223 -0.00307410385,0.647795151 0.292003701,0.352717353 C0.5870815,0.057639554 1.06549857,0.057639554 1.36057637,0.352717359 L19.5624547,18.5545957 L19.5624547,18.5545957 C19.8558039,18.8528164 19.8518533,19.3323776 19.5536333,19.6257269 C19.4129793,19.7640829 19.2238908,19.8420964 19.0265977,19.8431691" id="路径"></path>
                <path d="M0.82629,19.8431686 L0.826290035,19.8431686 C0.409713658,19.8450693 0.0704712988,19.5089082 0.0685708501,19.0923318 C0.0676470553,18.8898608 0.148162327,18.6955186 0.292004682,18.5530242 L18.493883,0.352717356 L18.493883,0.3527174 C18.8026838,0.07181685 19.2807325,0.094433171 19.5616331,0.40323324 C19.8242191,0.691900094 19.823895,1.13301043 19.5608837,1.42128934 L1.36057683,19.6215962 L1.36057683,19.6215962 C1.21900003,19.7635163 1.02675345,19.8432423 0.826290489,19.8431679" id="路径"></path>
            </g>
        </g>
    </g>
</svg>