<?xml version="1.0" encoding="UTF-8"?>
<svg width="20px" height="20px" viewBox="0 0 20 20" version="1.1" xmlns="http://www.w3.org/2000/svg" xmlns:xlink="http://www.w3.org/1999/xlink">
    <!-- Generator: Sketch 55 (78076) - https://sketchapp.com -->
    <title>权限</title>
    <desc>Created with Sketch.</desc>
    <g id="页面1" stroke="none" stroke-width="1" fill="none" fill-rule="evenodd">
        <g id="我的" transform="translate(-25.000000, -391.000000)" fill="#3196FD" fill-rule="nonzero">
            <g id="权限" transform="translate(25.000000, 391.000000)">
                <path d="M15.0307792,8.07231408 C15.8923193,7.21077402 15.8923193,5.91846392 15.0307792,5.05539651 C14.167702,4.19385644 12.7307765,4.19385644 11.8676896,4.91231939 C11.0061495,5.63078116 11.0061495,7.06616955 11.8676896,7.92923696 C12.7292297,8.79077703 14.1676923,8.93539243 15.0292362,8.07231408 L15.0307792,8.07231408 Z M12.8738626,7.06769768 L12.8738627,7.0676977 C12.5960205,6.80379115 12.5847237,6.36461681 12.848631,6.08677469 C12.8568239,6.07814921 12.8652372,6.06973586 12.8738627,6.06154302 L12.8738626,6.06154305 C13.1377692,5.78370093 13.5769435,5.77240404 13.8547856,6.03631138 C13.8634111,6.04450424 13.8718245,6.05291759 13.8800173,6.06154305 L13.8800173,6.06154304 C14.1578594,6.3254496 14.1691563,6.76462394 13.905249,7.04246606 C13.8970561,7.05109153 13.8886428,7.05950488 13.8800173,7.06769773 L13.8800173,7.06769771 C13.6161108,7.34553983 13.1769364,7.35683671 12.8990943,7.09292938 C12.8904688,7.08473652 12.8820555,7.07632317 12.8738626,7.06769771 L12.8738626,7.06769768 Z M2.8153939,18.1323199 L2.81539392,18.1323199 C2.55148736,18.410162 2.11231302,18.4214589 1.8344709,18.1575516 C1.82584542,18.1493587 1.81743207,18.1409454 1.80923923,18.1323199 L1.80923926,18.1323199 C1.53139714,17.8684134 1.52010025,17.429239 1.78400759,17.1513969 C1.79220045,17.1427714 1.8006138,17.1343581 1.80923926,17.1261652 L9.42463875,9.51076576 L9.13848412,9.07999573 C7.98771325,7.0676887 8.27694405,4.62459992 9.85694589,2.89998854 C11.8677099,0.887681508 15.0292566,0.887681508 16.8969541,2.89998854 C18.7661867,4.91229557 18.9092611,8.07229924 16.8969541,9.9415397 C15.3169522,11.6646179 12.8738635,11.9523038 10.8615564,10.8030798 L10.4307864,10.515388 L7.26923975,13.6769347 L8.85078066,15.2584756 L8.85078063,15.2584755 C9.11468718,15.5363177 9.55386152,15.5476145 9.83170364,15.2837072 C9.84032912,15.2755143 9.84874247,15.267101 9.85693531,15.2584755 L9.8569353,15.2584756 C10.1347774,14.994569 10.1460743,14.5553947 9.88216697,14.2775525 C9.87397411,14.2689271 9.86556076,14.2605137 9.8569353,14.2523209 L9.42616527,13.6769354 L10.7184754,12.3846253 C13.1615641,13.5338571 16.1800247,13.1030871 18.0477222,11.0907781 C20.6323346,8.50462277 20.6323346,4.48000871 18.0477222,1.89385336 C15.4600239,-0.692301993 11.4369528,-0.549235421 8.85079741,1.89385336 C6.98310383,3.90616039 6.40770863,6.78001139 7.55848731,9.22310017 L0.658479285,16.1200223 C-0.20306078,16.9815623 -0.20306078,18.2754154 0.658479285,19.1384828 C1.52001935,20.0000229 2.81232945,20.0000229 3.67539686,19.1384828 L5.25693776,17.5569419 L4.25078229,16.6954018 L2.81385679,18.1323273 L2.8153939,18.1323199 Z M8.85079155,17.1261645 L6.26155025,14.5384661 L5.25693385,15.6876979 L7.84154623,18.2738533 L7.84154616,18.2738532 C8.10500546,18.5521192 8.54416026,18.564125 8.82242816,18.3006654 C8.83160812,18.2919739 8.84054881,18.2830332 8.84924031,18.2738532 C9.13693205,17.8430832 9.13693205,17.4123132 8.84924031,17.1246214 L8.85079155,17.1261645 Z" id="形状"></path>
            </g>
        </g>
    </g>
</svg>