<?xml version="1.0" encoding="UTF-8"?>
<svg width="20px" height="21px" viewBox="0 0 20 21" version="1.1" xmlns="http://www.w3.org/2000/svg" xmlns:xlink="http://www.w3.org/1999/xlink">
    <!-- Generator: Sketch 55 (78076) - https://sketchapp.com -->
    <title>申请备份</title>
    <desc>Created with Sketch.</desc>
    <g id="页面1" stroke="none" stroke-width="1" fill="none" fill-rule="evenodd">
        <g id="我的" transform="translate(-25.000000, -183.000000)" fill="#3196FD" fill-rule="nonzero">
            <g id="申请备份" transform="translate(25.000000, 183.000000)">
                <path d="M5.99681164,20.4666336 L2.32096585,20.4666336 C1.20019222,20.4666336 0.288369732,19.5548111 0.288369732,18.4340375 L0.288369732,2.15581097 C0.288369732,1.03503735 1.20019222,0.123214857 2.32096585,0.123214857 L15.5161441,0.123214857 C16.6369178,0.123214857 17.5487157,1.03503735 17.5487157,2.15581097 L17.5487157,6.89971381 C17.5487157,7.33364959 17.1969363,7.68542901 16.7630005,7.68542901 C16.3290647,7.68542901 15.9772853,7.33364959 15.9772853,6.89971381 L15.9772853,2.15581097 C15.9772853,1.90583077 15.7660998,1.69464526 15.5161441,1.69464526 L2.32096585,1.69464526 C2.07098565,1.69464526 1.85980013,1.90583077 1.85980013,2.15581097 L1.85980013,18.4340129 C1.85980013,18.6839932 2.07098565,18.8951787 2.32096585,18.8951787 L5.99681164,18.8951787 C6.43074741,18.8951787 6.78252684,19.2469581 6.78252684,19.6808939 C6.78252684,20.1148296 6.43074741,20.4666336 5.99681164,20.4666336 Z M12.3313458,5.67824587 L4.3211021,5.67824587 C3.88716633,5.67824587 3.5353869,5.32646645 3.5353869,4.89253067 C3.5353869,4.4585949 3.88716633,4.10681547 4.3211021,4.10681547 L12.3313458,4.10681547 C12.7652816,4.10681547 13.117061,4.4585949 13.117061,4.89253067 C13.117061,5.32646645 12.7652816,5.67824587 12.3313458,5.67824587 Z M11.2510365,9.52687535 L4.32726506,9.52687535 C3.89332928,9.52687535 3.54154986,9.17509593 3.54154986,8.74116015 C3.54154986,8.30722438 3.89332928,7.95544495 4.32726506,7.95544495 L11.2510365,7.95544495 C11.6849723,7.95544495 12.0367517,8.30722438 12.0367517,8.74116015 C12.0367517,9.17509593 11.6849723,9.52687535 11.2510365,9.52687535 Z M8.99222807,13.4552304 L4.35184321,13.4552304 C3.91790744,13.4552304 3.56612801,13.1034509 3.56612801,12.6695152 C3.56612801,12.2355794 3.91790744,11.8838 4.35184321,11.8838 L8.99222807,11.8838 C9.42616385,11.8838 9.77794327,12.2355794 9.77794327,12.6695152 C9.77794327,13.1034509 9.42616385,13.4552304 8.99222807,13.4552304 Z M8.27327411,20.3521156 L8.19578295,16.7519195 C8.06054172,16.3244659 8.26588348,15.8843671 8.51397305,15.6059047 L14.9749828,8.35345881 C15.1556973,8.15059697 15.4029766,8.02458789 15.6712001,7.99865929 C15.957888,7.97093827 16.2447477,8.06372633 16.4576274,8.25337834 L19.1209809,10.6260909 C19.5488274,11.0072365 19.5811891,11.6719515 19.1935123,12.1088092 L17.5713296,13.9475301 C17.2842489,14.2729635 16.7877014,14.3040238 16.4623417,14.0169185 C16.1369328,13.7298624 16.105848,13.2333149 16.3929532,12.9079306 L17.6810596,11.4478754 L15.808774,9.7799002 L9.75942986,16.5702719 L9.7594299,16.5702724 C9.76309274,16.6079703 9.76532051,16.6457939 9.76610846,16.6836609 L9.80723574,18.5940783 L11.4780346,18.4020692 L11.4780347,18.4020691 C11.5054127,18.3746758 11.53199,18.3464937 11.5577329,18.3175585 L11.5632821,18.3113956 L14.878681,14.6676904 C15.1707215,14.3467749 15.6676127,14.3233016 15.9886265,14.6153176 C16.3095666,14.9073827 16.3330153,15.4042984 16.0409993,15.7252631 L12.7281785,19.3660955 C12.6475445,19.4564036 12.5241626,19.5856046 12.3891178,19.6950155 C12.0797425,19.9456341 11.8054297,19.9968529 11.5903892,19.9708997 L8.27327153,20.3521189 L8.27327411,20.3521156 Z M16.8594716,14.2134455 C16.6543263,14.2134455 16.4494019,14.1335972 16.2953035,13.9746618 L13.8678364,11.471054 C13.565778,11.1595179 13.5734633,10.6620865 13.8849994,10.3600036 C14.1965355,10.0579943 14.6939423,10.0656304 14.9960252,10.3771665 L17.4234923,12.8807743 C17.7255507,13.1923104 17.7178655,13.6897418 17.4063294,13.9918247 C17.2537288,14.1398093 17.0564897,14.2134455 16.8594716,14.2134455 L16.8594716,14.2134455 Z" id="形状"></path>
            </g>
        </g>
    </g>
</svg>