<?xml version="1.0" encoding="UTF-8"?>
<svg width="20px" height="21px" viewBox="0 0 20 21" version="1.1" xmlns="http://www.w3.org/2000/svg" xmlns:xlink="http://www.w3.org/1999/xlink">
    <!-- Generator: Sketch 55 (78076) - https://sketchapp.com -->
    <title>设置</title>
    <desc>Created with Sketch.</desc>
    <g id="页面1" stroke="none" stroke-width="1" fill="none" fill-rule="evenodd">
        <g id="我的" transform="translate(-25.000000, -442.000000)" fill="#999999" fill-rule="nonzero">
            <g id="设置" transform="translate(25.000000, 442.000000)">
                <path d="M10.000016,14.4999424 C7.86360726,14.4999424 6.12508962,12.7622841 6.12508962,10.625016 C6.12508962,8.48774789 7.86274789,6.75008962 10.000016,6.75008962 C12.1372841,6.75008962 13.8749424,8.48774789 13.8749424,10.625016 C13.8749424,12.7622841 12.1364247,14.4999424 10.000016,14.4999424 Z M10.000016,8.03915362 C8.57431122,8.03915362 7.41415362,9.19931122 7.41415362,10.625016 C7.41415362,12.0507208 8.57431122,13.2108784 10.000016,13.2108784 C11.4257208,13.2108784 12.5858784,12.0507208 12.5858784,10.625016 C12.5858784,9.19931122 11.4257208,8.03915362 10.000016,8.03915362 Z M10.8009544,20.8240904 L9.19993694,20.8240904 C8.45829546,20.8240904 7.78282592,20.3574492 7.51727874,19.662214 C6.85469984,17.9193995 5.72032352,17.0342422 4.14422794,17.0342422 C3.82368069,17.0342422 3.49282093,17.0711954 3.15938304,17.1442423 C2.42891344,17.3032269 1.63570939,16.9577577 1.23953706,16.304632 L0.556333136,15.1814276 C0.148129536,14.5093955 0.222035872,13.6568945 0.741098976,13.0596282 C2.57758549,10.9464226 1.79211582,9.2714988 0.808130304,8.23766947 C0.260707792,7.66188755 0.167895184,6.7793084 0.58125504,6.0918076 L1.24641206,4.98493131 C1.62797501,4.35071182 2.36446024,3.99493016 3.09922672,4.12641469 C3.43953962,4.18743038 3.76954,4.21836792 4.07805598,4.21836792 C6.18266781,4.21750854 7.13829392,2.79953814 7.5688413,1.60930238 C7.82579472,0.90117656 8.4926705,0.425941632 9.22915573,0.425941632 L10.7734544,0.425941632 C11.510799,0.425941632 12.1785342,0.902035936 12.4337688,1.60930238 C12.8643162,2.79953814 13.8190829,4.21836792 15.9245541,4.21836792 C16.2330701,4.21750854 16.5622111,4.18743038 16.9042428,4.12641469 C17.6312749,3.99407078 18.3746351,4.3515712 18.7561981,4.98665006 L19.4204957,6.09352635 C19.8338556,6.78102715 19.741043,7.6636063 19.1936204,8.23938822 C18.2096349,9.27321755 17.4241653,10.9481414 19.2606518,13.0604876 C19.7797149,13.6568945 19.8536212,14.5102549 19.446277,15.1831463 L18.7622137,16.3063507 C18.4322133,16.8494764 17.8401032,17.1863518 17.2170556,17.1863518 C17.2161963,17.1863518 17.2170556,17.1863518 17.2161963,17.1863518 C17.0907274,17.1863518 16.9643991,17.1717424 16.8415083,17.1451017 C16.5080704,17.0720548 16.1780701,17.0351016 15.8566634,17.0351016 C14.2805679,17.0351016 13.1461915,17.9193995 12.4836126,19.6630734 C12.2180655,20.3574492 11.5425959,20.8240904 10.8009544,20.8240904 Z M4.14336856,15.7460376 C6.24883976,15.7460376 7.87477915,16.9749453 8.72126451,19.2041666 C8.7968896,19.4018231 8.98853045,19.5350264 9.19907757,19.5350264 L10.8000951,19.5350264 C11.0106422,19.5350264 11.202283,19.4026825 11.2779081,19.2041666 C12.1252528,16.9740859 13.7511922,15.7460376 15.8558041,15.7460376 C16.2683045,15.7460376 16.6928363,15.7933033 17.1156493,15.8861159 C17.3193214,15.9282253 17.5427592,15.8285377 17.6596343,15.6360375 L18.3428382,14.512833 C18.458854,14.3220516 18.4356508,14.0779888 18.2869788,13.9061136 C15.5868194,10.8011881 17.3674464,8.28751328 18.25776,7.35079344 C18.4098695,7.1909495 18.4322133,6.95290235 18.3144788,6.757824 L17.6484624,5.64922896 C17.5530717,5.4902444 17.3794777,5.38797866 17.2050244,5.38797866 C16.7126019,5.46961938 16.3061171,5.50657254 15.921976,5.50743192 C13.7279891,5.50743192 12.0143933,4.24586795 11.2194705,2.04758414 C11.1464236,1.84563078 10.9702515,1.71500563 10.7717356,1.71500563 L9.22743698,1.71500563 C9.02892112,1.71500563 8.85188966,1.84563078 8.77970208,2.04844352 C8.40329539,3.08828848 7.19243461,5.50657254 4.07719661,5.50743192 C3.69305554,5.50743192 3.28743006,5.46961938 2.87149208,5.39485366 C2.60250739,5.39399429 2.44610096,5.49110378 2.3515696,5.64922896 L1.6855532,6.757824 C1.56781869,6.95376173 1.59102184,7.19180888 1.74227202,7.35079344 C2.63258555,8.28751328 4.41235325,10.8011881 1.71391261,13.9061136 C1.56438118,14.0779888 1.54117803,14.3220516 1.65805317,14.512833 L2.34039771,15.6360375 C2.45727285,15.8276783 2.68156998,15.9290847 2.88352334,15.8861159 C3.30719571,15.7933033 3.73086808,15.7460376 4.14336856,15.7460376 L4.14336856,15.7460376 Z" id="形状"></path>
            </g>
        </g>
    </g>
</svg>