<?xml version="1.0" encoding="UTF-8"?>
<svg width="19px" height="21px" viewBox="0 0 19 21" version="1.1" xmlns="http://www.w3.org/2000/svg" xmlns:xlink="http://www.w3.org/1999/xlink">
    <!-- Generator: Sketch 55 (78076) - https://sketchapp.com -->
    <title>审批</title>
    <desc>Created with Sketch.</desc>
    <g id="页面1" stroke="none" stroke-width="1" fill="none" fill-rule="evenodd">
        <g id="我的" transform="translate(-25.000000, -235.000000)" fill="#18B970" fill-rule="nonzero">
            <g id="审批" transform="translate(25.000000, 235.000000)">
                <path d="M17.6795727,20.6860555 L1.44743822,20.6860555 C0.966492742,20.6860555 0.576603877,20.3058233 0.576603877,19.8367898 C0.576603877,19.3677563 0.966492742,18.9875241 1.44743822,18.9875241 L17.6795727,18.9875241 C18.1605182,18.9875241 18.5504071,19.3677563 18.5504071,19.8367898 C18.5504071,20.3058233 18.1605182,20.6860555 17.6795727,20.6860555 Z M17.3626707,17.9047103 L1.6558942,17.9047103 C0.993379752,17.9047103 0.454387719,17.3790414 0.454387719,16.7329625 L0.454387719,13.1453988 C0.454387719,12.4992934 0.993379752,11.973651 1.6558942,11.973651 L6.83833825,11.973651 C7.31928373,11.973651 7.70917259,12.3538832 7.70917259,12.8229167 C7.70917259,13.2919502 7.31928373,13.6721824 6.83833825,13.6721824 L2.1960292,13.6721824 L2.1960292,16.2061789 L16.8225085,16.2061789 L16.8225085,13.6721824 L12.331398,13.6721824 C11.8504525,13.6721824 11.4605637,13.2919502 11.4605637,12.8229167 C11.4605637,12.3538832 11.8504525,11.973651 12.331398,11.973651 L17.3626707,11.973651 C18.0251851,11.973651 18.5641772,12.49932 18.5641772,13.1453988 L18.5641772,16.7329625 C18.5641772,17.3790414 18.0251851,17.9047103 17.3626707,17.9047103 Z M11.375494,9.9199408 C11.0275957,9.91996734 10.6990463,9.71524123 10.5644479,9.38023245 C10.389002,8.94349757 10.6098129,8.45079077 11.0576123,8.27969027 C12.3249212,7.79550267 13.1438048,6.62473683 13.1438048,5.29701608 C13.1438048,3.53149886 11.670979,2.09512517 9.86059606,2.09512517 C8.05021309,2.09512517 6.57738729,3.53149886 6.57738729,5.29701608 C6.57738729,6.56834028 7.34894652,7.71994456 8.54302369,8.23088404 C8.98344816,8.4193414 9.1838217,8.920302 8.99060533,9.34981813 C8.79733454,9.77933425 8.28362391,9.97474498 7.84325387,9.78631415 C6.01624341,9.00456508 4.83569138,7.24241839 4.83569138,5.29704262 C4.83569138,2.59494457 7.08984609,0.396620323 9.86056885,0.396620323 C12.6312644,0.396620323 14.8854463,2.59494457 14.8854463,5.29704262 C14.8854463,6.30188317 14.5756198,7.26786982 13.9894938,8.09051634 C13.4174373,8.89344397 12.6232908,9.505738 11.692886,9.86118223 L11.6928859,9.86118224 C11.5917902,9.89996183 11.4841293,9.91989304 11.375494,9.91994081 L11.375494,9.9199408 Z" id="形状"></path>
                <path d="M6.91176047,13.4998611 L6.91176043,13.4998611 C6.81015584,13.4998116 6.70934642,13.4823947 6.61390787,13.4484009 C6.16197206,13.2879162 5.92902387,12.8005439 6.09355714,12.3598015 L7.44329595,8.74453054 C7.60782921,8.30381473 8.1076337,8.07660961 8.55951509,8.23706775 C9.0114509,8.39752589 9.24439909,8.88489824 9.07986582,9.32564059 L7.73012701,12.9409381 C7.60135238,13.28574 7.26738741,13.4998611 6.91176043,13.4998611 L6.91176047,13.4998611 Z M12.0710458,13.6723417 C11.6634137,13.6723417 11.2993233,13.3918451 11.2175737,12.9870373 L10.4604649,9.23816623 C10.3675033,8.77797038 10.6747173,8.3314424 11.1466007,8.24078329 C11.6186473,8.15009764 12.0763796,8.44978227 12.1692868,8.90992504 L12.9263956,12.6587961 C13.0193572,13.118992 12.7121431,13.56552 12.2402598,13.6561525 C12.1834378,13.6670868 12.1268064,13.6723417 12.0710458,13.6723417 L12.0710458,13.6723417 Z" id="形状"></path>
            </g>
        </g>
    </g>
</svg>