<?xml version="1.0" encoding="UTF-8"?>
<svg width="21px" height="18px" viewBox="0 0 21 18" version="1.1" xmlns="http://www.w3.org/2000/svg" xmlns:xlink="http://www.w3.org/1999/xlink">
    <!-- Generator: Sketch 55 (78076) - https://sketchapp.com -->
    <title>汽车备份</title>
    <desc>Created with Sketch.</desc>
    <g id="页面1" stroke="none" stroke-width="1" fill="none" fill-rule="evenodd">
        <g id="我的" transform="translate(-25.000000, -340.000000)" fill="#F29700" fill-rule="nonzero">
            <g id="汽车备份" transform="translate(25.000000, 340.000000)">
                <path d="M20.5088147,10.257026 C20.4223239,9.13246354 19.7302761,8.09441211 18.6057339,7.66189743 L17.6541732,3.25017883 C17.3946603,1.60659063 15.7510924,0.309026337 14.1075042,0.309026337 L6.66814236,0.309026337 C5.02455416,0.309026337 3.38096597,1.60659063 3.03496234,3.25017883 L2.08340167,7.66189743 C1.04535023,8.09441211 0.266811658,9.13246354 0.180320888,10.257026 L0.00729879916,13.1116675 C-0.0791919709,14.3227207 0.612835562,15.4472832 1.73739804,15.8797979 C1.9969109,16.8313585 2.86194025,17.6098971 3.89999168,17.6098971 C4.85155235,17.6098971 5.7165817,17.0043604 6.0626056,16.1393107 L14.7995318,16.1393107 C15.1455557,17.0043604 15.9240942,17.6098971 16.9621457,17.6098971 C18.0001971,17.6098971 18.8652467,16.9178493 19.1247596,15.8797979 C20.2493018,15.4472832 20.9413496,14.3227207 20.8548386,13.1116675 L20.5088147,10.257026 L20.5088147,10.257026 Z M18.346221,14.8417464 C18.0867082,14.9282575 17.8271953,15.1877703 17.8271953,15.4472832 C17.8271953,15.9663089 17.3946603,16.3988236 16.8756346,16.3988236 C16.3566089,16.3988236 15.9240942,15.9663089 15.9240942,15.5337942 C15.9240942,15.1877703 15.5780703,14.9282575 15.3185575,14.9282575 L5.54357988,14.9282575 C5.19755598,14.9282575 4.93804312,15.1877703 4.93804312,15.5337942 C4.85155235,16.05282 4.50552845,16.3988236 3.98650273,16.3988236 C3.46747701,16.3988236 3.03496234,15.9663089 3.03496234,15.4472832 C3.03496234,15.1877703 2.86194025,14.9282575 2.51593662,14.8417464 C1.82388881,14.6687446 1.30486309,14.0632079 1.39137414,13.2846693 L1.56437595,10.4300278 C1.650887,9.65148926 2.16991272,9.04597277 2.94845129,8.78645991 C3.20796415,8.69994887 3.38096597,8.52694705 3.38096597,8.26743419 L3.38096597,8.09441211 L4.33252663,3.50969169 C4.59203949,2.47164025 5.63009093,1.60659063 6.75463313,1.60659063 L14.1940153,1.60659063 C15.2320667,1.60659063 16.3566089,2.47164025 16.6161218,3.50969169 L17.5676824,8.09441211 L17.5676824,8.26743419 C17.5676824,8.52694705 17.7406843,8.69994887 18.0001971,8.78645991 C18.7787357,9.04597277 19.2977614,9.65148926 19.3842725,10.4300278 L19.5572743,13.2846693 C19.5572743,13.9767171 19.1247596,14.6687446 18.346221,14.8417464 L18.346221,14.8417464 Z" id="形状"></path>
                <path d="M5.45702829,8.26743419 L15.2320262,8.26743419 C15.491539,8.26743419 15.6645408,8.18092315 15.8375426,8.00792133 C16.0105647,7.83489925 16.0105647,7.66189743 16.0105647,7.40238457 L16.0105647,7.31587353 L15.2320262,3.94220636 C15.1455151,3.42318064 14.6264894,2.99066597 14.1074637,2.99066597 L6.75459258,2.99066597 C6.23556687,2.99066597 5.71654115,3.42318064 5.63005038,3.94220636 L4.8515118,7.31587353 L4.8515118,7.40238457 C4.8515118,7.66189743 4.8515118,7.83489925 5.02451361,8.00792133 C5.02451361,8.18092315 5.28402647,8.26743419 5.45702829,8.26743419 Z M6.75459258,4.37474131 L13.9344619,4.37474131 L14.5399784,7.05636067 L6.14907609,7.05636067 L6.75459258,4.37474131 L6.75459258,4.37474131 Z M3.29443465,11.9006142 L3.29443465,11.9006144 C3.29443477,12.7127863 3.95282891,13.3711806 4.76500076,13.3711806 C5.5771726,13.3711804 6.23556687,12.7127863 6.23556687,11.9006144 L6.23556687,11.9006144 C6.23556687,11.0884426 5.5771726,10.4300483 4.76500076,10.4300483 C3.95282891,10.4300483 3.29443465,11.0884426 3.29443465,11.9006144 L3.29443465,11.9006142 Z M14.5399784,11.9006142 L14.5399784,11.9006144 C14.5399785,12.7127903 15.1983787,13.3711907 16.0105546,13.3711907 C16.8227305,13.3711906 17.4811308,12.7127903 17.4811308,11.9006144 L17.4811308,11.9006144 C17.4811308,11.0884385 16.8227305,10.4300382 16.0105546,10.4300382 C15.1983787,10.4300382 14.5399784,11.0884385 14.5399784,11.9006144 L14.5399784,11.9006142 Z" id="形状"></path>
            </g>
        </g>
    </g>
</svg>