<?xml version="1.0" encoding="UTF-8"?>
<svg width="19px" height="19px" viewBox="0 0 19 19" version="1.1" xmlns="http://www.w3.org/2000/svg" xmlns:xlink="http://www.w3.org/1999/xlink">
    <!-- Generator: Sketch 55 (78076) - https://sketchapp.com -->
    <title>表单</title>
    <desc>Created with Sketch.</desc>
    <g id="页面1" stroke="none" stroke-width="1" fill="none" fill-rule="evenodd">
        <g id="我的" transform="translate(-25.000000, -288.000000)" fill="#18B970" fill-rule="nonzero">
            <g id="表单" transform="translate(25.000000, 288.000000)">
                <path d="M5.11538462,10.2307692 L10.9615385,10.2307692 C11.3707692,10.2307692 11.6923077,9.90923077 11.6923077,9.5 C11.6923077,9.09076923 11.3707692,8.76923077 10.9615385,8.76923077 L5.11538462,8.76923077 C4.70615385,8.76923077 4.38461538,9.09076923 4.38461538,9.5 C4.38461538,9.90923077 4.70615385,10.2307692 5.11538462,10.2307692 Z M16.0769231,0 L2.92307692,0 C1.31538462,0 0,1.31538462 0,2.92307692 L0,16.0769231 C0,17.6846154 1.31538462,19 2.92307692,19 L16.0769231,19 C17.6846154,19 19,17.6846154 19,16.0769231 L19,2.92307692 C19,1.31538462 17.6846154,0 16.0769231,0 Z M17.5384615,16.0769231 C17.5384615,16.8807692 16.8807692,17.5384615 16.0769231,17.5384615 L2.92307692,17.5384615 C2.11923077,17.5384615 1.46153846,16.8807692 1.46153846,16.0769231 L1.46153846,2.92307692 C1.46153846,2.11923077 2.11923077,1.46153846 2.92307692,1.46153846 L16.0769231,1.46153846 C16.8807692,1.46153846 17.5384615,2.11923077 17.5384615,2.92307692 L17.5384615,16.0769231 Z M13.8846154,4.38461538 L5.11538462,4.38461538 C4.70615385,4.38461538 4.38461538,4.70615385 4.38461538,5.11538462 C4.38461538,5.52461538 4.70615385,5.84615385 5.11538462,5.84615385 L13.8846154,5.84615385 C14.2938462,5.84615385 14.6153846,5.52461538 14.6153846,5.11538462 C14.6153846,4.70615385 14.2938462,4.38461538 13.8846154,4.38461538 Z M12.4230769,13.1538462 L5.11538462,13.1538462 C4.70615385,13.1538462 4.38461538,13.4753846 4.38461538,13.8846154 L4.38461538,13.8846154 C4.38461538,14.2938462 4.70615385,14.6153846 5.11538462,14.6153846 L12.4230769,14.6153846 C12.8323077,14.6153846 13.1538462,14.2938462 13.1538462,13.8846154 L13.1538462,13.8846154 C13.1538462,13.4753846 12.8323077,13.1538462 12.4230769,13.1538462 Z" id="形状"></path>
            </g>
        </g>
    </g>
</svg>