<?xml version="1.0" encoding="UTF-8"?>
<svg width="21px" height="18px" viewBox="0 0 21 18" version="1.1" xmlns="http://www.w3.org/2000/svg" xmlns:xlink="http://www.w3.org/1999/xlink">
    <!-- Generator: Sketch 55 (78076) - https://sketchapp.com -->
    <title>工作</title>
    <desc>Created with Sketch.</desc>
    <g id="页面1" stroke="none" stroke-width="1" fill="none" fill-rule="evenodd">
        <g id="我的" transform="translate(-25.000000, -390.000000)" fill="#F29700" fill-rule="nonzero">
            <g id="工作" transform="translate(25.000000, 390.000000)">
                <path d="M18.137796,17.8338884 L2.39806585,17.8338884 L2.39806577,17.8338884 C1.07419389,17.8324622 0.0013409462,16.7595917 -5.23263347e-05,15.4357181 L-5.23263347e-05,5.10021344 L-5.23181507e-05,5.10020593 C0.00139314115,3.77636713 1.07422873,2.70355077 2.39806578,2.70212266 L18.1377959,2.70212266 L18.1377959,2.70212266 C19.4616451,2.70354878 20.5344859,3.77638455 20.535914,5.10024076 L20.535914,15.4357802 L20.5359141,15.4356807 C20.5345428,16.7595299 19.4617515,17.8324055 18.1379005,17.8338858 L18.137796,17.8338884 Z M2.39806585,3.7829265 L2.39806593,3.7829265 C1.67091525,3.78377594 1.08165502,4.37303663 1.08080512,5.10018731 L1.08080512,15.4357268 L1.08080512,15.4357237 C1.08163774,16.1628849 1.67090132,16.7521643 2.39806244,16.7530142 L18.1377926,16.7530142 L18.1377926,16.7530142 C18.8649641,16.7521798 19.454247,16.1628988 19.4550812,15.4357255 L19.4550812,5.10022084 L19.4550813,5.10025134 C19.4542486,4.37309021 18.8649851,3.78381082 18.1378239,3.78296092 L2.39806585,3.7829265 Z" id="形状"></path>
                <polygon id="路径" points="4.4408921e-16 7.56588784 7.56588784 7.56588784 7.56588784 8.6467399 4.4408921e-16 8.6467399"></polygon>
                <path d="M11.8892648,9.72755017 L8.64673642,9.72755017 L8.64673643,9.72755017 C7.75134462,9.72745738 7.02556109,9.00152456 7.02565513,8.10613275 C7.02574792,7.21087155 7.75147698,6.48514375 8.64673643,6.48505145 L11.8892299,6.48505145 L11.88923,6.48505145 C12.7846218,6.48514427 13.5104053,7.21107705 13.5103113,8.10646887 C13.5102185,9.00173007 12.7844894,9.72745787 11.88923,9.72755017 L11.8892648,9.72755017 Z M8.64673642,7.56587042 L8.6467364,7.56587042 C8.34826781,7.56587043 8.10631036,7.80782787 8.10631036,8.10629646 C8.10631038,8.40476504 8.34826781,8.64672249 8.6467364,8.64672249 L11.8892299,8.64672249 L11.8892299,8.64672249 C12.1876985,8.6467225 12.4296559,8.40476504 12.4296559,8.10629646 C12.4296559,7.80782787 12.1876985,7.56587042 11.8892299,7.56587042 L8.64673642,7.56587042 Z" id="形状"></path>
                <path d="M12.4296629,7.56588784 L20.5359663,7.56588784 L20.5359663,8.6467399 L12.4296629,8.6467399 L12.4296629,7.56588784 Z M15.4019835,3.78296133 L6.14729258,3.78296133 L6.14729263,3.78296133 C5.58791461,3.78235449 5.1346012,3.32904011 5.13399338,2.76966209 L5.13399338,1.418597 L5.13399334,1.41863139 C5.13492995,0.635551273 5.76949629,0.000966140167 6.55257641,6.52370921e-06 L13.9664408,6.52370921e-06 L13.9664409,6.52376574e-06 C14.7589012,0.000825910826 15.4011145,0.643038371 15.401933,1.4354987 L15.4019835,3.78296133 Z M6.21484888,2.70210927 L14.3211523,2.70210927 L14.3211523,1.43549914 L14.3211523,1.43550034 C14.3210011,1.23968982 14.1622957,1.08099607 13.9664861,1.08085849 L6.55262168,1.08085849 L6.5526217,1.08085849 C6.36708308,1.08326086 6.21725752,1.2330857 6.21485586,1.41862432 L6.21484888,2.70210927 Z" id="形状"></path>
            </g>
        </g>
    </g>
</svg>