<?xml version="1.0" encoding="UTF-8"?>
<svg width="70px" height="24px" viewBox="0 0 70 24" version="1.1" xmlns="http://www.w3.org/2000/svg" xmlns:xlink="http://www.w3.org/1999/xlink">
    <!-- Generator: Sketch 55 (78076) - https://sketchapp.com -->
    <title>编组</title>
    <desc>Created with Sketch.</desc>
    <defs>
        <polygon id="path-1" points="0 0.00632542373 10.6830508 0.00632542373 10.6830508 5.69491525 0 5.69491525"></polygon>
        <polygon id="path-3" points="0.00964067797 0.0478372881 24.3571322 0.0478372881 24.3571322 23.8983051 0.00964067797 23.8983051"></polygon>
        <polygon id="path-5" points="0.0574677966 0.0478169492 24.2113322 0.0478169492 24.2113322 23.8983051 0.0574677966 23.8983051"></polygon>
        <polygon id="path-7" points="0.00502372881 0.0237571793 46.7478712 0.0237571793 46.7478712 9.55932203 0.00502372881 9.55932203"></polygon>
    </defs>
    <g id="页面1" stroke="none" stroke-width="1" fill="none" fill-rule="evenodd">
        <g id="启动图美术1" transform="translate(-24.000000, -100.000000)">
            <g id="编组" transform="translate(24.000000, 100.000000)">
                <g transform="translate(0.000000, 18.257288)">
                    <mask id="mask-2" fill="white">
                        <use xlink:href="#path-1"></use>
                    </mask>
                    <g id="Clip-2"></g>
                    <path d="M0,5.69493559 L10.6830508,5.69493559 L10.6830508,0.00632542373 C4.61216949,2.62110508 0,5.69493559 0,5.69493559" id="Fill-1" fill="#8EC330" mask="url(#mask-2)"></path>
                </g>
                <path d="M60.5276949,10.4564441 C60.5252542,10.4564441 60.5228136,10.4563424 60.5202712,10.4563424 L60.5202712,10.4564441 L57.4257966,10.4564441 L57.4257966,5.30132542 L60.5202712,5.30132542 L60.5202712,5.30142712 C60.5228136,5.30142712 60.5252542,5.30132542 60.5276949,5.30132542 C61.9512203,5.30132542 63.1053559,6.45525763 63.1053559,7.87878305 C63.1053559,9.30241017 61.9512203,10.4564441 60.5276949,10.4564441 M69.6039661,7.70132542 C69.6039661,3.53102034 66.2442712,0.146715254 62.0840339,0.103698305 L62.0840339,0.101766102 L62.0044068,0.101766102 L62.0042034,0.101766102 L62.004,0.101766102 L57.4257966,0.101766102 L51.7825424,0.101766102 L51.7825424,23.9521729 L57.4257966,23.9521729 L57.4257966,15.3010881 L62.0840339,15.3010881 L62.0840339,15.2990542 C66.2442712,15.2559356 69.6039661,11.8718339 69.6039661,7.70132542" id="Fill-3" fill="#00974F"></path>
                <g transform="translate(5.491525, 0.053898)">
                    <mask id="mask-4" fill="white">
                        <use xlink:href="#path-3"></use>
                    </mask>
                    <g id="Clip-6"></g>
                    <polygon id="Fill-5" fill="#00974F" mask="url(#mask-4)" points="15.6172678 0.0478372881 12.3286576 13.6890915 8.7051661 0.0478372881 0.00964067797 0.0478372881 0.00964067797 23.8983458 5.19150508 23.8983458 5.19150508 6.32770169 9.85869153 23.8983458 15.0492 23.8983458 19.1752678 6.78329492 19.1752678 23.8983458 24.3571322 23.8983458 24.3571322 0.0478372881"></polygon>
                </g>
                <g transform="translate(28.779661, 0.053898)">
                    <mask id="mask-6" fill="white">
                        <use xlink:href="#path-5"></use>
                    </mask>
                    <g id="Clip-8"></g>
                    <polygon id="Fill-7" fill="#00974F" mask="url(#mask-6)" points="24.2113322 23.8983254 15.8530271 0.0478169492 8.41577288 0.0478169492 0.0574677966 23.8983254 6.90916271 23.8983254 12.1344508 6.93500339 17.359739 23.8983254"></polygon>
                </g>
                <g transform="translate(10.677966, 14.392881)">
                    <mask id="mask-8" fill="white">
                        <use xlink:href="#path-7"></use>
                    </mask>
                    <g id="Clip-10"></g>
                    <path d="M11.5576678,0.455715254 C7.62787119,0.960427119 3.56607458,2.3367661 0.00502372881,3.8707322 L0.00502372881,9.55934237 C23.1103119,-2.47228475 46.7478712,9.55934237 46.7478712,9.55934237 C46.7478712,9.55934237 33.5271254,-2.36591186 11.5576678,0.455715254" id="Fill-9" fill="#8EC330" mask="url(#mask-8)"></path>
                </g>
            </g>
        </g>
    </g>
</svg>