<?xml version="1.0" encoding="UTF-8"?>
<svg width="46px" height="46px" viewBox="0 0 46 46" version="1.1" xmlns="http://www.w3.org/2000/svg" xmlns:xlink="http://www.w3.org/1999/xlink">
    <!-- Generator: Sketch 55 (78076) - https://sketchapp.com -->
    <title>编组</title>
    <desc>Created with Sketch.</desc>
    <defs>
        <circle id="path-1" cx="23" cy="23" r="23"></circle>
        <linearGradient x1="15.9781428%" y1="119.309517%" x2="97.8759551%" y2="-1.77743674%" id="linearGradient-3">
            <stop stop-color="#0067B4" offset="0%"></stop>
            <stop stop-color="#0BA55F" offset="46.9066723%"></stop>
            <stop stop-color="#B5D100" offset="100%"></stop>
        </linearGradient>
        <polygon id="path-4" points="1.09670053e-05 0.0274082034 2.96631173 0.0274082034 2.96631173 1.74644068 1.09670053e-05 1.74644068"></polygon>
        <polygon id="path-6" points="0.0404243816 0.0423075254 3.52200989 0.0423075254 3.52200989 1.96474576 0.0404243816 1.96474576"></polygon>
        <polygon id="path-8" points="0.0464836521 0.0256617627 13.1749212 0.0256617627 13.1749212 12.8254237 0.0464836521 12.8254237"></polygon>
        <polygon id="path-10" points="0.0169878912 0.0227910508 6.75478695 0.0227910508 6.75478695 2.67423729 0.0169878912 2.67423729"></polygon>
        <polygon id="path-12" points="0.0211772873 0.00318725424 6.19911073 0.00318725424 6.19911073 1.96474576 0.0211772873 1.96474576"></polygon>
        <polygon id="path-14" points="0.0386751443 0.0127217288 25.028916 0.0127217288 25.028916 5.13016949 0.0386751443 5.13016949"></polygon>
    </defs>
    <g id="页面1" stroke="none" stroke-width="1" fill="none" fill-rule="evenodd">
        <g id="未登录" transform="translate(-25.000000, -73.000000)">
            <g id="编组" transform="translate(25.000000, 73.000000)">
                <mask id="mask-2" fill="white">
                    <use xlink:href="#path-1"></use>
                </mask>
                <use id="椭圆形" fill="#FFFFFF" xlink:href="#path-1"></use>
                <rect id="矩形" fill="url(#linearGradient-3)" mask="url(#mask-2)" x="-1.84" y="-1.84" width="49.68" height="47.84"></rect>
                <g mask="url(#mask-2)">
                    <g transform="translate(3.680000, 16.560000)">
                        <g id="编组" stroke-width="1" fill="none" transform="translate(0.000000, 11.107908)">
                            <mask id="mask-5" fill="white">
                                <use xlink:href="#path-4"></use>
                            </mask>
                            <g id="Clip-2"></g>
                            <path d="M2.96631173,1.74645159 L2.96631173,0.0274082034 C1.17221933,0.968958034 1.09670053e-05,1.74645159 1.09670053e-05,1.74645159 L2.96631173,1.74645159 Z" id="Fill-1" fill="#FEFEFE" mask="url(#mask-5)"></path>
                        </g>
                        <path d="M32.8429895,5.61162498 C32.8416735,5.61162498 32.8403575,5.61157041 32.8389866,5.61157041 L32.8389866,5.61162498 L31.1704116,5.61162498 L31.1704116,2.84504464 L32.8389866,2.84504464 L32.8389866,2.84509922 C32.8403575,2.84509922 32.8416735,2.84504464 32.8429895,2.84504464 C33.6105702,2.84504464 34.232893,3.46432159 34.232893,4.22828024 C34.232893,4.99229346 33.6105702,5.61162498 32.8429895,5.61162498 M33.6821848,0.0556514237 L33.6821848,0.0546144746 L33.639249,0.0546144746 L33.6391393,0.0546144746 L33.6390296,0.0546144746 L31.1704116,0.0546144746 L28.1275063,0.0546144746 L28.1275063,10.5708616 C29.7751343,11.4589267 30.8062521,12.2642541 31.1704116,12.5667158 L31.1704116,8.21158397 L33.6821848,8.21158397 L33.6821848,8.21054702 C35.9254309,8.1873521 37.7370157,6.37121753 37.7370157,4.13304464 C37.7370157,1.89498092 35.9254309,0.0787371864 33.6821848,0.0556514237" id="Fill-3" fill="#FEFEFE"></path>
                        <g id="编组" stroke-width="1" fill="none" transform="translate(8.225254, 10.889603)">
                            <mask id="mask-7" fill="white">
                                <use xlink:href="#path-6"></use>
                            </mask>
                            <g id="Clip-6"></g>
                            <path d="M0.257516252,1.96475668 L3.05635085,1.96475668 L3.52200989,0.0423075254 C2.33121245,0.328341763 1.16975175,0.698368881 0.0404243816,1.15129736 L0.257516252,1.96475668 Z" id="Fill-5" fill="#FEFEFE" mask="url(#mask-7)"></path>
                        </g>
                        <g id="编组" stroke-width="1" fill="none" transform="translate(3.125597, 0.028925)">
                            <mask id="mask-9" fill="white">
                                <use xlink:href="#path-8"></use>
                            </mask>
                            <g id="Clip-8"></g>
                            <path d="M2.84060243,9.53481295 L2.84060243,3.39591024 L4.32186101,8.94615329 C6.02350155,8.31765295 7.60609526,7.90680278 9.04195043,7.72331736 C9.1619843,7.70792685 9.28212784,7.69395532 9.40232622,7.68009295 L10.3808024,3.64035736 L10.3808024,7.5836021 C11.148109,7.52133058 11.9134963,7.48967634 12.6682456,7.48967634 C12.837302,7.48967634 13.0061938,7.49180481 13.1749212,7.49491566 L13.1749212,0.0256617627 L8.46228936,0.0256617627 L6.68903427,7.3464682 L4.73520744,0.0256617627 L0.0464836521,0.0256617627 L0.0464836521,10.860798 L0.0464836521,11.1063913 L0.0464836521,12.8254346 L2.8429055,12.8254346 L2.84060243,9.53546786 L2.84060243,9.53481295 Z" id="Fill-7" fill="#FEFEFE" mask="url(#mask-9)"></path>
                        </g>
                        <path d="M22.2671389,3.75072695 L23.813706,8.74773034 C24.9820759,9.11879441 26.118477,9.57106797 27.2066233,10.0994208 C27.4627028,10.2237456 27.7068832,10.3479066 27.9398773,10.4708669 L24.2722365,0.0546035593 L20.2619865,0.0546035593 L17.6121935,7.58007102 C18.7375728,7.65544085 19.8518753,7.80083203 20.9472598,8.0152622 L22.2671389,3.75072695 Z" id="Fill-9" fill="#FEFEFE"></path>
                        <g id="编组" stroke-width="1" fill="none" transform="translate(13.489417, 10.180112)">
                            <mask id="mask-11" fill="white">
                                <use xlink:href="#path-10"></use>
                            </mask>
                            <g id="Clip-12"></g>
                            <path d="M3.1876588,0.0558096949 C3.06192208,0.0618130847 2.93634987,0.0686351186 2.81110667,0.0763303729 C1.86481862,0.134508678 0.933061846,0.240604949 0.0169878912,0.394128 L0.0169878912,2.67427003 L2.2657175,2.67427003 L2.81110667,2.67427003 L5.96017258,2.67427003 L6.75478695,0.106893085 C6.0419316,0.0533537627 5.30483918,0.0227910508 4.54833515,0.0227910508 C4.09161421,0.0227910508 3.63812854,0.0341974915 3.1876588,0.0558096949" id="Fill-11" fill="#FEFEFE" mask="url(#mask-11)"></path>
                        </g>
                        <g id="编组" stroke-width="1" fill="none" transform="translate(24.456422, 10.889603)">
                            <mask id="mask-13" fill="white">
                                <use xlink:href="#path-12"></use>
                            </mask>
                            <g id="Clip-14"></g>
                            <path d="M2.88394952,0.738547932 C2.08697724,0.495192339 1.12001639,0.234372339 0.0211772873,0.00318725424 L0.628255867,1.96476759 L3.67110633,1.96476759 L4.32271095,1.96476759 L6.19911073,1.96476759 C5.77002664,1.77194963 5.02196721,1.45595302 4.02144731,1.10917539 C3.67198369,0.988070644 3.29230596,0.863254712 2.88394952,0.738547932" id="Fill-13" fill="#FEFEFE" mask="url(#mask-13)"></path>
                        </g>
                        <g id="编组" stroke-width="1" fill="none" transform="translate(6.141523, 7.724180)">
                            <mask id="mask-15" fill="white">
                                <use xlink:href="#path-14"></use>
                            </mask>
                            <g id="Clip-16"></g>
                            <path d="M6.05396789,0.244561729 C4.01306304,0.505436305 1.90679483,1.20057427 0.0386751443,1.98690919 L0.0386751443,5.02156817 C4.12092354,2.95454647 8.22658648,2.26039088 11.8962561,2.26039088 C19.3645126,2.26039088 25.028916,5.13017495 25.028916,5.13017495 C25.028916,5.13017495 19.3277731,0.0127217288 9.65235201,0.0127217288 C8.50712248,0.0127217288 7.30771594,0.0842712203 6.05396789,0.244561729" id="Fill-15" fill="#FEFEFE" mask="url(#mask-15)"></path>
                        </g>
                    </g>
                </g>
            </g>
        </g>
    </g>
</svg>