<?xml version="1.0" encoding="UTF-8"?>
<svg width="60px" height="60px" viewBox="0 0 60 60" version="1.1" xmlns="http://www.w3.org/2000/svg" xmlns:xlink="http://www.w3.org/1999/xlink">
    <!-- Generator: Sketch 55 (78076) - https://sketchapp.com -->
    <title>编组 2</title>
    <desc>Created with Sketch.</desc>
    <g id="页面1" stroke="none" stroke-width="1" fill="none" fill-rule="evenodd">
        <g id="用车" transform="translate(-218.000000, -433.000000)">
            <g id="编组-2" transform="translate(218.000000, 433.000000)">
                <circle id="椭圆形备份" fill="#18B970" cx="30" cy="30" r="30"></circle>
                <g id="通知备份" transform="translate(15.000000, 17.000000)" fill="#FFFFFF" fill-rule="nonzero">
                    <g id="农机-拷贝@1x">
                        <path d="M4.13130831,19.3096373 L4.13130847,19.3096373 C2.06189347,19.3243351 0.396213304,21.0138411 0.410908634,23.0832432 C0.425606477,25.1526582 2.11511247,26.8183384 4.18451459,26.8036431 C6.24350751,26.7890193 7.90494665,25.1157749 7.9050111,23.0567207 L7.90501108,23.0567196 C7.86521123,20.9936307 6.19461651,19.3348051 4.13130845,19.3096039 L4.13130831,19.3096373 Z M23.6652041,13.1194553 C25.4535935,13.1194553 28.216019,13.7634878 28.216019,14.7322 L28.216019,6.6578254 C28.216019,4.88008046 27.5666626,2.93732888 25.7782732,2.93732888 L17.6453751,2.93732888 L14.39326,11.0170209 L8.69807857,11.0170209 L8.69807857,5.03976004 C8.69807857,4.55540391 8.86307876,4.07104778 8.37340202,3.74637123 L5.44597957,0.67523748 L5.44597959,0.675237501 C4.94105644,0.0917297905 4.05870824,0.0280274703 3.47520053,0.532950294 C3.42441335,0.576897709 3.37686106,0.624450313 3.33291333,0.675237501 C2.68355701,1.32459382 2.35888046,2.29330286 3.00823678,2.93733535 L5.44598249,5.68378932 L5.44598249,11.0170338 L4.63162597,11.0170338 C3.6575931,11.0170338 2.19388026,12.3104226 2.19388026,13.1194553 L2.19388026,18.1280168 C3.82259329,18.1280168 3.16791314,17.9630166 3.49791352,17.9630166 C6.58501233,17.9630166 9.35274553,20.2251144 9.35274553,23.2962611 L9.35274553,23.2962609 C9.34379047,23.4719649 9.40073159,23.6446853 9.51242318,23.7806171 L16.8309874,23.7806171 C16.3466312,23.7806171 16.0219547,22.0028721 16.0219547,20.8744835 C15.8569545,16.5099706 19.2740698,13.1194745 23.6652019,13.1194745 L23.6652041,13.1194553 Z M23.6013329,14.4607457 L23.6013332,14.4607457 C20.2914358,14.4842622 17.6273273,17.1865199 17.6508205,20.4964012 C17.6743369,23.8062986 20.3765946,26.4704071 23.6864759,26.446914 C26.9796799,26.423516 29.6370531,23.7472788 29.6371176,20.453991 L29.6371178,20.4540161 C29.6137317,17.1371577 26.9182594,14.4606742 23.6013334,14.4607708 L23.6013329,14.4607457 Z" id="形状"></path>
                    </g>
                </g>
            </g>
        </g>
    </g>
</svg>