<?xml version="1.0" encoding="UTF-8"?>
<svg width="60px" height="60px" viewBox="0 0 60 60" version="1.1" xmlns="http://www.w3.org/2000/svg" xmlns:xlink="http://www.w3.org/1999/xlink">
    <!-- Generator: Sketch 55 (78076) - https://sketchapp.com -->
    <title>编组</title>
    <desc>Created with Sketch.</desc>
    <g id="页面1" stroke="none" stroke-width="1" fill="none" fill-rule="evenodd">
        <g id="用车" transform="translate(-98.000000, -433.000000)">
            <g id="编组" transform="translate(98.000000, 433.000000)">
                <circle id="椭圆形" fill="#3196FD" cx="30" cy="30" r="30"></circle>
                <g id="通知" transform="translate(15.000000, 17.000000)" fill="#FFFFFF">
                    <path d="M25.5751341,9.1766222 C25.5894861,8.99004715 25.5952268,8.79773133 25.5952268,8.60254512 C25.5952268,3.8606684 21.6656692,-5.68434189e-14 16.8405513,-5.68434189e-14 L12.5349732,-5.68434189e-14 C7.70698487,-5.68434189e-14 3.7802976,3.8606684 3.7802976,8.60254512 C3.7802976,8.79486094 3.78603838,8.98430638 3.8003903,9.1766222 C1.54139697,10.3333875 0,12.6497886 0,15.319247 C0,18.4537079 2.1269556,21.1030736 5.04613758,21.9555781 L5.04613758,23.4711416 C5.04613758,24.4154984 5.79817856,25.1818913 6.72244267,25.1818913 L8.39874775,25.1818913 C9.32301186,25.1818913 10.0750528,24.4183688 10.0750528,23.4711416 L10.0750528,22.2426167 L19.3090828,22.2426167 L19.3090828,23.4711416 C19.3090828,24.4154984 20.0611237,25.1818913 20.9853878,25.1818913 L22.6616929,25.1818913 C23.585957,25.1818913 24.337998,24.4183688 24.337998,23.4711416 L24.337998,21.9498373 C27.2485688,21.0944625 29.3697837,18.4479671 29.3697837,15.3163766 C29.3755244,12.6497886 27.8341275,10.3333875 25.5751341,9.1766222 Z M6.30049601,17.6241665 C4.90835908,17.6241665 3.77742722,16.4989754 3.77742722,15.1068385 C3.77742722,13.7175719 4.90548869,12.5895105 6.30049601,12.5895105 C7.69550332,12.5895105 8.8235648,13.7147016 8.8235648,15.1068385 C8.8235648,16.4989754 7.69263294,17.6241665 6.30049601,17.6241665 Z M7.06401853,8.39300698 C6.80281346,8.39300698 6.54734915,8.40735891 6.29188485,8.43319238 C6.38373719,5.15521222 9.13643681,2.51732802 12.5062693,2.51732802 L16.860644,2.51732802 C20.2333469,2.51732802 22.9831761,5.15521222 23.0750284,8.43319238 C22.8224345,8.40735891 22.5640998,8.39300698 22.3086355,8.39300698 L7.06401853,8.39300698 Z M23.08651,17.6241665 C21.6972434,17.6241665 20.569182,16.4989754 20.569182,15.1068385 C20.569182,13.7175719 21.694373,12.5895105 23.08651,12.5895105 C24.4757765,12.5895105 25.603838,13.7147016 25.603838,15.1068385 C25.6009676,16.4989754 24.4757765,17.6241665 23.08651,17.6241665 Z" id="形状"></path>
                </g>
            </g>
        </g>
    </g>
</svg>