<?xml version="1.0" encoding="UTF-8"?>
<svg width="23px" height="20px" viewBox="0 0 23 20" version="1.1" xmlns="http://www.w3.org/2000/svg" xmlns:xlink="http://www.w3.org/1999/xlink">
    <!-- Generator: Sketch 55 (78076) - https://sketchapp.com -->
    <title>拍照备份</title>
    <desc>Created with Sketch.</desc>
    <g id="页面1" stroke="none" stroke-width="1" fill="none" fill-rule="evenodd">
        <g id="粮库熏蒸备案" transform="translate(-337.000000, -462.000000)" fill="#999999" fill-rule="nonzero">
            <g id="拍照备份" transform="translate(337.000000, 462.000000)">
                <path d="M11.3920171,6.6808205 C8.84306495,6.6808205 6.76908988,8.76853412 6.76908988,11.3348572 C6.76908988,13.9011745 8.84284151,15.9887792 11.3920171,15.9887792 C13.9412042,15.9887792 16.0149444,13.9010055 16.0149444,11.3348572 C16.0149444,8.76871459 13.9411326,6.6808205 11.3920171,6.6808205 Z M21.1333878,4.25653512 L16.46076,3.10666712 L16.46076,2.14734855 L16.4607601,2.14716911 C16.461066,1.26119256 15.7458194,0.541281823 14.85986,0.535830515 L7.44685402,0.535830515 L7.44685393,0.535830515 C6.56092894,0.541412793 5.84581352,1.26140454 5.84624894,2.14734671 L5.84624894,3.07257956 L1.45890529,4.29396197 L1.46782264,4.29754064 L1.46782263,4.29754065 C0.778611669,4.49816312 0.304373617,5.12940516 0.303580126,5.84722188 L0.303580126,17.9114 L0.30358015,17.9113499 C0.303147643,18.7972807 1.01822291,19.5172745 1.90413358,19.5229148 L20.8796999,19.5229148 L20.8796998,19.5229148 C21.7656363,19.5173328 22.4807689,18.7973523 22.4803621,17.9113986 L22.4803621,5.84722053 L22.4803622,5.84731918 C22.479891,5.05935732 21.9105157,4.38691279 21.1334135,4.25654832 L21.1333878,4.25653512 Z M11.3920171,17.8970666 C7.7977916,17.8970666 4.87373611,14.9532168 4.87373611,11.3347283 C4.87373611,7.71621102 7.7977916,4.77244718 11.3920171,4.77244718 C14.9862427,4.77244718 17.9102982,7.71629696 17.9102982,11.3347283 C17.9102982,14.9531882 14.9861854,17.8970666 11.3920171,17.8970666 Z M18.5420827,7.43731487 L18.5420828,7.43731487 C17.7692144,7.44253139 17.1384496,6.82022561 17.1332332,6.04735439 C17.1280167,5.27448605 17.7503225,4.64372125 18.5231937,4.63850484 C19.296062,4.63328831 19.9268268,5.2555941 19.9320433,6.02846531 C19.9320646,6.03162266 19.9320752,6.03478003 19.9320751,6.03793744 L19.9320752,6.0379452 C19.9346673,6.80820391 19.3123505,7.43472339 18.5420918,7.43731584 C18.5420865,7.43731585 18.5420812,7.43731587 18.542076,7.43731589 L18.5420827,7.43731487 Z" id="形状"></path>
            </g>
        </g>
    </g>
</svg>