<?xml version="1.0" encoding="UTF-8"?>
<svg width="15px" height="16px" viewBox="0 0 15 16" version="1.1" xmlns="http://www.w3.org/2000/svg" xmlns:xlink="http://www.w3.org/1999/xlink">
    <!-- Generator: Sketch 55 (78076) - https://sketchapp.com -->
    <title>筛选</title>
    <desc>Created with Sketch.</desc>
    <g id="页面1" stroke="none" stroke-width="1" fill="none" fill-rule="evenodd">
        <g id="安全学习-最近" transform="translate(-338.000000, -206.000000)" fill="#999999" fill-rule="nonzero">
            <g id="筛选" transform="translate(338.000000, 206.000000)">
                <path d="M12.9569361,1.18439581 C13.4165304,1.18439581 13.7902443,1.55408027 13.7902443,2.0077926 C13.7902443,2.21024249 13.7190116,2.39781562 13.5839177,2.54944774 C13.5703587,2.56522207 13.5567614,2.58191306 13.5435461,2.59787836 L9.15314692,7.09109713 C8.9571137,7.2922675 8.84699899,7.56077476 8.84699899,7.84012925 L8.84699899,14.200753 L6.12098193,12.0170976 L6.12098193,7.7039468 L6.12098197,7.70423587 C6.12098197,7.42426072 6.01111208,7.15546892 5.81499828,6.95565636 L1.57563918,2.61238915 C1.55728673,2.58668426 1.53820858,2.56118944 1.51764085,2.5386165 C1.38913549,2.38828299 1.32160764,2.20475847 1.32160764,2.00778949 C1.32160764,1.55407716 1.69530251,1.18441179 2.15453395,1.18441179 L12.9569285,1.18441179 L12.9569361,1.18439581 Z M12.9569285,0.106085887 L2.15453395,0.106085887 C1.09398758,0.106085887 0.229875462,0.959197991 0.229875462,2.00778949 C0.229875462,2.46134904 0.391056205,2.89212559 0.684351685,3.23463467 L0.684351689,3.23463467 C0.706393156,3.26967697 0.732242422,3.30217437 0.761428168,3.33153409 L5.02994876,7.70396279 L5.02994876,12.2744299 C5.02994876,12.4368711 5.10339676,12.5809598 5.21792294,12.6789668 C5.22453058,12.6853835 5.23075628,12.6907307 5.23774588,12.6973193 L9.07384756,15.7700468 C9.17296226,15.8531771 9.29373323,15.8939307 9.415249,15.8939307 C9.56468494,15.8939307 9.71333789,15.8311389 9.81758975,15.7102152 C9.91815584,15.5929581 9.95636942,15.4450117 9.93799787,15.3043987 L9.93799787,7.84010705 L14.3478572,3.32710353 C14.3691506,3.30655489 14.387484,3.28398195 14.4040222,3.26083609 C14.7123854,2.91376277 14.8812623,2.47177615 14.8812623,2.0077704 C14.8812241,0.959178899 14.0182005,0.106066796 12.9569285,0.106066796 L12.9569285,0.106085887 Z" id="形状"></path>
            </g>
        </g>
    </g>
</svg>