<?xml version="1.0" encoding="UTF-8"?>
<svg width="122px" height="121px" viewBox="0 0 122 121" version="1.1" xmlns="http://www.w3.org/2000/svg" xmlns:xlink="http://www.w3.org/1999/xlink">
    <!-- Generator: Sketch 55 (78076) - https://sketchapp.com -->
    <title>提交成功 (1)</title>
    <desc>Created with Sketch.</desc>
    <g id="页面1" stroke="none" stroke-width="1" fill="none" fill-rule="evenodd">
        <g id="提交成功1" transform="translate(-127.000000, -165.000000)" fill-rule="nonzero">
            <g id="提交成功-(1)" transform="translate(127.000000, 165.000000)">
                <path d="M114.074074,56.6665498 C114.074074,70.8874562 108.832079,83.8396736 100.113687,93.7696563 C98.6743022,95.4158325 97.1533051,96.980693 95.523531,98.4649388 C85.3928016,107.69334 71.8666996,113.333333 57.0371546,113.333333 C42.2076097,113.333333 28.6816253,107.693223 18.5507782,98.4649388 C16.9210041,96.980693 15.4001247,95.4159493 13.9607398,93.7696563 C5.24187754,83.8396736 3.69482223e-13,70.8873394 3.69482223e-13,56.6665498 C3.70317798e-13,25.3651339 25.5309717,3.05533376e-13 57.037037,3.05533376e-13 C88.5431024,3.05533376e-13 114.074074,25.3653676 114.074074,56.6665498 Z" id="路径" fill-opacity="0.2" fill="#3196FD"></path>
                <path d="M59.6296296,120.259259 C44.6851545,120.259259 30.3945736,114.701282 19.3901336,104.61336 C17.7377889,103.096257 16.1225412,101.435813 14.5948707,99.675114 C5.18442977,88.887632 0,75.0208632 0,60.6296883 C0,27.7487058 26.7487321,1 59.6296296,1 C92.5109967,1 119.259259,27.7487058 119.259259,60.6296883 C119.259259,75.0208632 114.074829,88.8875146 104.661571,99.6802795 C103.136366,101.435813 101.521236,103.096257 99.8691256,104.61336 C88.8644509,114.701282 74.5739873,120.259259 59.6296296,120.259259 Z M59.6296296,6.38035793 C29.7169655,6.38035793 5.38036323,30.7169362 5.38036323,60.6295709 C5.38036323,73.7178894 10.0934492,86.3321645 18.6540624,96.1425629 C20.0520107,97.7524088 21.5215703,99.2670469 23.028227,100.646797 C33.0345685,109.823964 46.0355575,114.878667 59.6296296,114.878667 C73.2238192,114.878667 86.2248081,109.823964 96.2310323,100.646797 C97.7375716,99.2669295 99.2071312,97.7524088 100.602614,96.1480805 C109.16581,86.3321645 113.878661,73.7178894 113.878661,60.6295709 C113.879013,30.7169362 89.5425286,6.38035793 59.6296296,6.38035793 Z" id="形状" fill="#3196FD"></path>
                <path d="M85.5998177,53.5925926 L32.9185836,53.5925926 C28.2384432,53.5925926 24.4444444,49.8273375 24.4444444,45.1830304 L24.4444444,36.0762289 C24.4444444,31.4316891 28.2384432,27.6666667 32.9185836,27.6666667 L85.5997005,27.6666667 C90.2800753,27.6666667 94.0740741,31.4316891 94.0740741,36.0762289 L94.0740741,45.1830304 C94.0740741,49.8273375 90.2801925,53.5925926 85.5998177,53.5925926 Z" id="路径" fill="#FFFFFF"></path>
                <path d="M85.5998177,32.9975798 C87.3105633,32.9975798 88.702251,34.3789016 88.702251,36.0763861 L88.702251,45.1831058 C88.702251,46.8805903 87.3104461,48.2617957 85.5998177,48.2617957 L32.918818,48.2617957 C31.207838,48.2617957 29.8161503,46.8805903 29.8161503,45.1831058 L29.8161503,36.0763861 C29.8161503,34.3789016 31.207838,32.9976962 32.918818,32.9976962 L85.5997005,32.9976962 L85.5998177,32.9975798 Z M85.5998177,27.6666667 L32.918818,27.6666667 C28.2385604,27.6666667 24.4444444,31.4320043 24.4444444,36.0762697 L24.4444444,45.1831058 C24.4444444,49.8273713 28.2386776,53.5925926 32.918818,53.5925926 L85.5997005,53.5925926 C90.2796064,53.5925926 94.0740741,49.8273713 94.0740741,45.1831058 L94.0740741,36.0762697 C94.0740741,31.431888 90.2798409,27.6666667 85.5998177,27.6666667 L85.5998177,27.6666667 Z" id="形状" fill="#3196FD"></path>
                <path d="M102.222222,48.3925136 L102.222222,97.4387573 C102.222222,99.474858 101.499501,101.47457 100.08643,102.938905 L100.086431,102.938905 C99.2966497,103.757687 98.4821823,104.552256 97.6441684,105.321516 C87.5401485,114.593134 74.0497079,120.259259 59.2592609,120.259259 C44.4688139,120.259259 30.9784906,114.593251 20.8743534,105.321516 L20.8743504,105.321513 C20.0363342,104.552253 19.2218738,103.757686 18.4320882,102.938902 C17.0187827,101.474567 16.2962963,99.4745028 16.2962963,97.4387543 L16.2962963,48.3925105 C16.2962963,43.9005528 19.9347662,40.2592593 24.423096,40.2592593 L94.0957718,40.2592593 C98.5836324,40.2592593 102.22222,43.9005528 102.22222,48.3925105 L102.222222,48.3925136 Z" id="路径" fill="#FFFFFF"></path>
                <path d="M94.0957383,45.6388407 C95.6128487,45.6388407 96.8472969,46.8742781 96.8472969,48.3926042 L96.8472969,97.4385874 C96.8472969,98.1461614 96.6188214,98.788941 96.2198102,99.2021229 L96.2198104,99.2021227 C95.5058571,99.9424531 94.769495,100.660807 94.0117608,101.356186 C84.5078583,110.077023 72.1656046,114.879676 59.2591993,114.879676 C46.3525595,114.879676 34.0107749,110.077023 24.5058169,101.355246 L24.5058193,101.355249 C23.7482809,100.659903 23.0120372,99.9416735 22.2981215,99.201538 C21.8996968,98.7888256 21.6711039,98.1461634 21.6711039,97.438472 L21.6711039,48.3927236 C21.6711039,46.8743974 22.9056694,45.6389601 24.4226626,45.6389601 L94.0957408,45.6389601 L94.0957383,45.6388407 Z M94.0957383,40.2592593 L24.4228947,40.2592593 C19.9346638,40.2592593 16.2962963,43.9005422 16.2962963,48.3924868 L16.2962963,97.4385874 C16.2962963,99.4746821 17.0187857,101.474389 18.432097,102.938719 L18.4320983,102.938721 C19.2217171,103.757665 20.036189,104.552243 20.8743706,105.321325 C30.9786664,114.593268 44.4688103,120.259259 59.2593178,120.259259 C74.0497081,120.259259 87.5400866,114.593268 97.6442651,105.321325 L97.6442666,105.321323 C98.4824106,104.552237 99.2968439,103.757665 100.086422,102.938719 C101.499967,101.474389 102.222222,99.4746821 102.222222,97.4385875 L102.222222,48.3926042 C102.222457,43.900777 98.583972,40.2592593 94.0957411,40.2592593 L94.0957383,40.2592593 Z" id="形状" fill="#3196FD"></path>
                <polygon id="路径" fill="#FFFFFF" points="32.5927102 71.3703704 85.1851852 71.3703704 32.5925926 71.3703704"></polygon>
                <path d="M85.4631203,73.5925926 L33.0553982,73.5925926 C31.5728682,73.5925926 30.3703704,72.4314161 30.3703704,70.9998303 C30.3703704,69.5685839 31.5728682,68.4074074 33.0553982,68.4074074 L85.4631203,68.4074074 C86.9456503,68.4074074 88.1481481,69.5685839 88.1481481,70.9998303 C88.1481481,72.4316424 86.9456503,73.5925926 85.4631203,73.5925926 Z" id="路径" fill="#3196FD"></path>
                <polygon id="路径" fill="#FFFFFF" points="32.5927102 57.2962963 85.1851852 57.2962963 32.5925926 57.2962963"></polygon>
                <path d="M85.4631203,59.5185185 L33.0553982,59.5185185 C31.5728682,59.5185185 30.3703704,58.3574805 30.3703704,56.9259259 C30.3703704,55.4943713 31.5728682,54.3333333 33.0553982,54.3333333 L85.4631203,54.3333333 C86.9456503,54.3333333 88.1481481,55.4943713 88.1481481,56.9259259 C88.1481481,58.3574805 86.9456503,59.5185185 85.4631203,59.5185185 Z" id="路径" fill="#3196FD"></path>
                <polygon id="路径" fill="#FFFFFF" points="32.5927114 86.9259259 58.5185185 86.9259259 32.5925926 86.9259259"></polygon>
                <path d="M58.7418562,89.7203025 L33.0662821,89.7203025 C31.5777953,89.7203025 30.3703704,88.5174502 30.3703704,87.0339325 C30.3703704,85.5504147 31.5777953,84.347328 33.0663998,84.347328 L58.7418562,84.347328 C60.2304607,84.347328 61.4377679,85.550532 61.4377679,87.0339325 C61.4377679,88.517333 60.2304607,89.7203025 58.7418562,89.7203025 L58.7418562,89.7203025 Z M76.1380459,98.4075686 C76.1380459,106.478871 80.4592695,113.93761 87.4736989,117.973262 C94.4883636,122.008913 103.130928,122.008913 110.145476,117.973262 C117.16014,113.93761 121.481481,106.478871 121.481481,98.4075686 C121.481481,85.9300283 111.330783,75.8148148 98.8097049,75.8148148 C86.2886272,75.8148148 76.1380459,85.9299111 76.1380459,98.4075686 L76.1380459,98.4075686 Z" id="形状" fill="#3196FD"></path>
                <path d="M96.2377714,108.407407 L96.2377714,108.407407 C95.5150126,108.407046 94.8220462,108.128757 94.3115136,107.633838 L87.4655968,101.010802 C86.4003566,99.9830578 86.4003566,98.3117653 87.4655968,97.2842512 C88.5277445,96.250984 90.25537,96.250984 91.3177557,97.2842512 L96.055553,101.864571 L105.552438,90.8397935 C106.507539,89.7212644 108.227195,89.5656991 109.388897,90.4998969 C110.545246,91.4344399 110.703319,93.0951466 109.737752,94.2137907 L98.333283,107.457216 L98.333283,107.457216 C97.8432202,108.027246 97.1275728,108.371148 96.3619463,108.404531 C96.3210304,108.407407 96.2784494,108.407407 96.2378903,108.407407 L96.2377714,108.407407 Z" id="路径" fill="#FFFFFF"></path>
            </g>
        </g>
    </g>
</svg>