<?xml version="1.0" encoding="UTF-8"?>
<svg width="102px" height="94px" viewBox="0 0 102 94" version="1.1" xmlns="http://www.w3.org/2000/svg" xmlns:xlink="http://www.w3.org/1999/xlink">
    <!-- Generator: Sketch 55 (78076) - https://sketchapp.com -->
    <title>盖章－与实际一致</title>
    <desc>Created with Sketch.</desc>
    <defs>
        <linearGradient x1="23.8747721%" y1="60.9568557%" x2="114.31891%" y2="60.9568557%" id="linearGradient-1">
            <stop stop-color="#FF6767" offset="0%"></stop>
            <stop stop-color="#C41F1F" offset="100%"></stop>
        </linearGradient>
    </defs>
    <g id="页面1" stroke="none" stroke-width="1" fill="none" fill-rule="evenodd" opacity="0.5">
        <g id="私家车登记成功" transform="translate(-235.000000, -650.000000)" fill="#E02020">
            <g id="盖章－与实际一致" transform="translate(235.000000, 650.000000)">
                <path d="M9.0040675,40.066057 L9.00406726,40.0660571 C7.85135274,40.4917748 6.57012901,39.9068985 6.14236198,38.7597011 C6.14082258,38.7555726 6.13929554,38.7514396 6.1377809,38.7473021 L6.13778094,38.7473022 C5.99260217,38.3530477 5.96140783,37.9261796 6.04774056,37.5151709 C9.28394048,21.566148 20.577989,8.45324608 35.8593133,2.90192466 C51.103153,-2.74274269 68.1815198,-0.0410034239 80.9447318,10.0333641 L80.9447318,10.0333641 C81.9165142,10.7975501 82.0873458,12.1986331 81.3274029,13.1719428 L81.3274029,13.1719428 C80.5750335,14.1381774 79.178061,14.3144679 78.2071835,13.5657002 C78.2022731,13.5619131 78.1973787,13.5581057 78.1925004,13.5542778 C66.6448588,4.43724123 51.1894067,1.99092376 37.3952773,7.09938727 C23.5695722,12.1249981 13.3522628,23.9900472 10.424498,38.4209469 L10.4244979,38.4209469 C10.2689703,39.177217 9.73134308,39.7995704 9.00336267,40.0660276 L9.0040675,40.066057 Z M23.0526487,83.9673376 C22.0806261,83.202873 21.9101083,81.8012507 22.670728,80.8280145 C23.4230972,79.86178 24.8200698,79.6854895 25.7909473,80.4342573 C25.7958577,80.4380443 25.8007521,80.4418518 25.8056304,80.4456797 C37.353272,89.5634697 52.8087241,92.0097688 66.6028535,86.9013145 C80.4285585,81.8757036 90.645868,70.0106545 93.5744638,55.5797549 C93.82109,54.3755102 95.001942,53.5982462 96.2119728,53.8436985 C96.2141975,53.8441498 96.2164216,53.8446044 96.218645,53.8450624 C97.4305132,54.1015961 98.2055755,55.28535 97.9519177,56.4922864 C94.7119694,72.438369 83.4178839,85.5482387 68.1388678,91.0980899 C52.8949661,96.7426909 35.8158607,94.0409609 23.0526487,83.9673376 Z" id="形状"></path>
                <path d="M32.6511967,32.667889 L32.6511965,32.6678891 C31.499187,33.1009473 30.2154577,32.5148725 29.7839022,31.3588543 C29.7824604,31.3549922 29.7810293,31.3511261 29.7796089,31.347256 L29.7796089,31.3472561 C29.4943833,30.5779368 29.6466439,29.7139451 30.1775024,29.089448 C36.2637777,21.8263467 45.6337624,18.2486952 54.9579744,19.6295246 L54.9579745,19.6295246 C56.1829246,19.8171852 57.0254726,20.9642553 56.8415879,22.1939499 L56.841588,22.1939492 C56.6651792,23.4219659 55.530118,24.2739625 54.3063597,24.0969464 C54.3045974,24.0966915 54.3028355,24.0964345 54.3010739,24.0961753 C46.5076152,22.9488151 38.6789056,25.9381309 33.5881262,32.0048997 C33.3388795,32.3047351 33.0153094,32.5322484 32.651197,32.6678526 L32.6511967,32.667889 Z M60.3836538,72.7162051 L60.3836527,72.7162055 C55.943703,74.3608719 51.1521498,74.810967 46.4851385,74.0217734 L46.4851384,74.0217733 C45.264216,73.8108103 44.4433949,72.6485545 44.6495701,71.4226976 L44.6495702,71.4226973 C44.8485096,70.1985739 45.9986928,69.3680555 47.2185714,69.5676899 C47.2205887,69.56802 47.2226057,69.5683529 47.2246222,69.5686886 C55.1607195,70.9171942 63.2124168,67.9399385 68.4090598,61.7368109 L68.4090598,61.7368109 C69.1987842,60.7919217 70.6023101,60.6683552 71.543932,61.4608304 C71.5487816,61.4649119 71.5536139,61.4690141 71.5584286,61.473137 L71.5584287,61.473137 C72.5003277,62.2812689 72.6169346,63.7002435 71.8196871,64.6522983 L71.8196872,64.6522982 C68.7703372,68.2915474 64.8285558,71.0705778 60.3829158,72.7154574 L60.3836538,72.7162051 Z M94.9425534,51.279515 L20.2774499,78.8998104 C14.7009361,80.9534604 8.52983136,78.0635864 6.48184319,72.4390381 L0.654573233,56.3888432 C-1.37918894,50.7597758 1.48414423,44.5302664 7.0554092,42.4623595 L81.7205127,14.842064 C87.2857658,12.7823887 93.4763528,15.678288 95.5161194,21.3028364 L101.342632,37.3530312 C103.383147,42.9775842 100.513812,49.2198581 94.9425534,51.279515 L94.9425534,51.279515 Z M8.59209315,46.6968596 C5.33612453,47.9075048 3.66496803,51.5484689 4.85564636,54.8376164 L10.6761544,70.8878112 C11.8750912,74.173946 15.482414,75.8614574 18.7406366,74.6591088 L93.4057402,47.0448387 C96.6639628,45.8372062 98.3381215,42.1947404 97.1481914,38.9040819 L91.3201732,22.8538871 C90.1219847,19.5677523 86.5146711,17.8802409 83.255691,19.0825895 L8.59206544,46.6968596 L8.59209315,46.6968596 Z M37.904836,10.0988558 L39.9956591,12.1065461 L39.9956591,12.1065461 C40.0595908,12.1687469 40.1510744,12.1932654 40.2373984,12.1713346 L43.0556869,11.5724175 L43.0556869,11.5724175 C43.1996715,11.5379661 43.3442251,11.6271661 43.3785568,11.7716515 C43.393572,11.8348423 43.3852871,11.9013517 43.3552333,11.9588885 L42.1052492,14.5843275 L42.1052492,14.5843275 C42.0683294,14.6650058 42.0730964,14.7587091 42.1180118,14.8351952 L43.5526843,17.3581844 L43.5526843,17.3581844 C43.6276983,17.4876788 43.5838969,17.6536778 43.4548511,17.7289532 C43.403453,17.7589347 43.343638,17.7710736 43.2846694,17.7634897 L40.4228346,17.3770187 L40.4228346,17.3770187 C40.3372855,17.3659451 40.2516858,17.3971042 40.1931071,17.4606412 L38.2546867,19.6167411 L38.2546867,19.6167411 C38.1556942,19.7260505 37.9871402,19.7341347 37.8782089,19.6347983 C37.8358864,19.5962033 37.8070579,19.544971 37.7959825,19.488671 L37.2734656,16.6244141 L37.2734656,16.6244141 C37.2564075,16.5391001 37.1993788,16.4672855 37.1203145,16.431555 L34.4874627,15.2337208 L34.4874626,15.2337207 C34.3520155,15.1707801 34.2930617,15.0095733 34.3557836,14.8736548 C34.3795311,14.8221946 34.4187567,14.7794987 34.4679435,14.7515734 L37.0054535,13.3676572 L37.0054535,13.3676572 C37.0844507,13.3249452 37.1370827,13.2455804 37.1458427,13.1559646 L37.4581522,10.2593098 L37.4581522,10.2593098 C37.4791833,10.1122806 37.6150094,10.0101988 37.7615288,10.0313033 C37.8147236,10.0389654 37.8643947,10.0624977 37.9040935,10.098845 L37.904836,10.0988558 Z M20.6460323,21.99136 L23.5281346,21.9205447 L23.5281346,21.9205447 C23.6169464,21.9165956 23.6979883,21.8685919 23.7443484,21.7924741 L25.3194055,19.3591331 L25.3194055,19.3591331 C25.3979311,19.2342049 25.562512,19.1968096 25.6870069,19.2756083 C25.7390591,19.3085546 25.7781448,19.3585623 25.7976288,19.4171415 L26.7533289,22.1653775 C26.7841093,22.2482466 26.8531778,22.3107753 26.9387628,22.3326223 L29.7240175,23.0920043 C29.9342258,23.1560396 29.9920323,23.4332739 29.8141066,23.5681244 L27.5183368,25.3385079 L27.5183368,25.3385079 C27.4486461,25.3941381 27.4107366,25.4806473 27.4169868,25.5697875 L27.5633814,28.4717076 L27.5633814,28.4717076 C27.5720259,28.6204063 27.4589072,28.7479829 27.3107242,28.7566576 C27.2511684,28.7601439 27.1921496,28.7436477 27.1429656,28.7097678 L24.7706156,27.056156 L24.7706156,27.056156 C24.6954916,27.0043867 24.5992155,26.9947257 24.5153635,27.030542 L21.8254507,28.0603796 L21.8254507,28.0603796 C21.686993,28.1117137 21.5332803,28.0406951 21.482124,27.9017557 C21.462877,27.849481 21.4603359,27.792488 21.4748536,27.7386972 L22.3036736,24.9452523 L22.3036736,24.9452523 C22.3295402,24.858325 22.3103813,24.764176 22.2526231,24.6943846 L20.4425785,22.4290495 L20.4425784,22.4290494 C20.3512522,22.3105731 20.3729286,22.1402368 20.4909939,22.0485928 C20.5355443,22.0140121 20.5897482,21.9942622 20.6460295,21.9921031 L20.6460323,21.99136 Z M58.629146,8.26519667 L58.6989651,11.1731514 C58.6989651,11.263554 58.7500156,11.3471761 58.8265916,11.3916248 L61.2364742,12.9887372 L61.2364741,12.9887372 C61.3614171,13.0699229 61.3971179,13.2373754 61.3162139,13.3627541 C61.2837948,13.4129942 61.2356837,13.4510238 61.179418,13.4708845 L58.4572288,14.4359355 L58.4572289,14.4359355 C58.376181,14.465944 58.314448,14.5332174 58.291315,14.6167411 L57.5390706,17.429013 L57.5390706,17.429013 C57.5030188,17.5726467 57.3577585,17.6597577 57.2146229,17.6235805 C57.1556782,17.6086824 57.1035549,17.5740661 57.0668537,17.525443 L55.31387,15.2088737 L55.31387,15.2088737 C55.2593934,15.1384059 55.1735722,15.0997227 55.0848935,15.1056637 L52.2095532,15.2472942 L52.2095532,15.2472942 C52.0618588,15.2571556 51.934163,15.1450038 51.924336,14.9967955 C51.9202166,14.9346689 51.9377059,14.8730325 51.9738203,14.8224018 L53.6119429,12.428235 L53.6119429,12.428235 C53.6630335,12.3549458 53.6748299,12.2610922 53.6434741,12.1773673 L52.6172076,9.46151994 L52.6172076,9.46151993 C52.5636517,9.3217091 52.633182,9.16480383 52.7725083,9.11106124 C52.8247825,9.09089748 52.8820078,9.08752707 52.9362734,9.10141592 L55.7027572,9.93763993 C55.7890926,9.96400732 55.8829358,9.94517349 55.9512529,9.88641177 L58.1959754,8.05876877 L58.1959754,8.05876879 C58.3108271,7.96639254 58.4785599,7.98493696 58.5706159,8.10018885 C58.6078729,8.14683374 58.6284824,8.20465949 58.6291542,8.26443487 L58.629146,8.26519667 Z M64.6418434,83.7589097 L64.9541528,80.863015 L64.9541528,80.8630149 C64.9645642,80.775337 65.0169721,80.6982795 65.0945421,80.6565959 L67.6320521,79.2734399 L67.6320521,79.2734399 C67.7619649,79.1996814 67.8076941,79.0342067 67.734191,78.9038427 C67.7063619,78.854485 67.6638144,78.815123 67.6125329,78.7912925 L64.9796811,77.6002345 L64.979681,77.6002345 C64.8988897,77.563175 64.8415652,77.48845 64.82653,77.4005954 L64.3040131,74.5370894 L64.3040131,74.5370895 C64.2744541,74.3915453 64.1329142,74.2976042 63.9878747,74.3272666 C63.932823,74.3385252 63.8826892,74.3668597 63.844558,74.408266 L61.9068951,76.5643658 L61.9068951,76.5643658 C61.8481691,76.6276265 61.76259,76.6584969 61.6771676,76.6472349 L58.8145845,76.2615167 L58.8145845,76.2615167 C58.6680476,76.2405391 58.5323086,76.3427386 58.5114037,76.4897855 C58.5026745,76.551188 58.5153628,76.6137311 58.5473197,76.666822 L59.9812347,79.1898112 L59.9812347,79.1898112 C60.0282572,79.2678439 60.0330525,79.3643662 59.9939973,79.4467052 L58.7447614,82.0661189 L58.7447614,82.0661189 C58.677852,82.2000109 58.7317759,82.3629814 58.8652038,82.4301244 C58.9205754,82.457988 58.9838051,82.4659192 59.0443081,82.4525904 L61.8686011,81.8536732 L61.8686011,81.8536732 C61.9529972,81.8357087 62.0408381,81.8598508 62.104334,81.9184618 L64.1951572,83.9261521 L64.1951572,83.9261521 C64.3028442,84.0268444 64.4714869,84.02087 64.57183,83.9128077 C64.6111506,83.8704622 64.6357202,83.8164593 64.6418493,83.7589077 L64.6418434,83.7589097 Z M43.85832,85.9398711 L46.1022943,84.1122281 L46.1022943,84.1122281 C46.1707183,84.0585294 46.2609279,84.0416616 46.3440335,84.0670268 L49.1112748,84.9032508 L49.1112748,84.9032508 C49.2523486,84.9468265 49.4019145,84.8673905 49.4453389,84.7258259 C49.4637649,84.6657568 49.4605822,84.6011017 49.4363465,84.5431469 L48.4160845,81.8212741 L48.4160844,81.8212741 C48.3827129,81.73831 48.3922629,81.6441681 48.4416098,81.5696538 L50.0804806,79.1762471 L50.0804806,79.1762471 C50.1652657,79.0529726 50.1344104,78.8840676 50.0115634,78.7989875 C49.9624757,78.7649908 49.9035595,78.7482433 49.8439969,78.7513547 L46.962643,78.8990124 L46.962643,78.8990124 C46.8749588,78.901525 46.7916281,78.8607 46.7396727,78.7897761 L44.9866891,76.4732068 L44.9866891,76.4732068 C44.8985102,76.3549418 44.7314869,76.3308004 44.6136319,76.4192865 C44.5642331,76.4563753 44.5291872,76.5095132 44.5144722,76.5696362 L43.7622277,79.381908 L43.7622278,79.381908 C43.7396127,79.4690896 43.6751129,79.5391841 43.5903076,79.5687399 L40.8748711,80.533791 L40.8748711,80.533791 C40.7334925,80.5818329 40.6576939,80.7357873 40.7055689,80.8776579 C40.7246275,80.9341349 40.7617027,80.9827348 40.8110583,81.0159383 L43.2329591,82.6055143 C43.2967722,82.6582491 43.3478228,82.7350912 43.3478228,82.8247404 L43.4183927,85.733446 L43.4183927,85.733446 C43.4209544,85.883208 43.5440165,86.0025298 43.6932591,85.9999592 C43.753414,85.9989231 43.8115048,85.977775 43.8583286,85.9398653 L43.85832,85.9398711 Z M81.6371891,71.6464887 L79.8263962,69.3751189 L79.8263962,69.3751189 C79.7686379,69.3053276 79.7494791,69.2111788 79.7753457,69.1242513 L80.6041657,66.336841 L80.6041657,66.336841 C80.6453279,66.1928653 80.5623856,66.0426649 80.4189091,66.0013596 C80.3622344,65.9850435 80.3017978,65.987773 80.2468125,66.0091318 L77.5568997,67.0389695 L77.5568997,67.0389695 C77.4749621,67.0723264 77.3818729,67.0627311 77.308404,67.0133555 L74.936054,65.3589836 L74.936054,65.3589836 C74.8161853,65.2732654 74.6497643,65.3012882 74.5643437,65.4215743 C74.5281481,65.4725434 74.5109126,65.5346371 74.5156381,65.5970442 L74.6560274,68.5057498 L74.6560274,68.50575 C74.6603484,68.5932081 74.6223233,68.6773785 74.5539263,68.7317561 L72.2589048,70.5013887 L72.2589048,70.5013887 C72.1410647,70.593324 72.1198061,70.7637129 72.2114225,70.8819631 C72.2476138,70.9286756 72.2980357,70.9622296 72.3549997,70.9775088 L75.1402544,71.7368908 C75.2243375,71.7617515 75.2911533,71.82654 75.3189309,71.9101628 L76.2753793,74.6523735 L76.2753793,74.6523735 C76.3207432,74.7933245 76.4713848,74.8706856 76.611847,74.8251635 C76.6701192,74.8062783 76.7201613,74.7678858 76.7536016,74.7164084 L78.3346633,72.2710166 L78.3346633,72.2710166 C78.3839159,72.1992799 78.4648218,72.1560173 78.5516281,72.1549995 L81.4329821,72.0841842 L81.4329821,72.0841842 C81.5814173,72.0839125 81.7015281,71.9629435 81.7012574,71.8139918 C81.7011413,71.7501152 81.6784358,71.6883535 81.6371843,71.6397047 L81.6371843,71.6472383 L81.6371891,71.6464887 Z" id="形状"></path>
                <text id="登记成功" transform="translate(52.000000, 47.000000) rotate(-20.000000) translate(-52.000000, -47.000000) " font-family="PingFangSC-Semibold, PingFang SC" font-size="17" font-weight="500">
                    <tspan x="18" y="53">登记成功</tspan>
                </text>
            </g>
        </g>
    </g>
</svg>