<?xml version="1.0" encoding="UTF-8"?>
<svg width="80px" height="80px" viewBox="0 0 80 80" version="1.1" xmlns="http://www.w3.org/2000/svg" xmlns:xlink="http://www.w3.org/1999/xlink">
    <!-- Generator: Sketch 55 (78076) - https://sketchapp.com -->
    <title>农业资源</title>
    <desc>Created with Sketch.</desc>
    <g id="页面1" stroke="none" stroke-width="1" fill="none" fill-rule="evenodd">
        <g id="动火作业工作中" transform="translate(-14.000000, -98.000000)" fill-rule="nonzero">
            <g id="农业资源" transform="translate(14.000000, 98.000000)">
                <path d="M0,40 L0,40 C3.33571139e-06,62.0914062 17.9085938,80 40,80 C62.0914063,79.9999967 80,62.0914062 80,40 L80,40 C80,17.9085938 62.0914063,0 40,0 C17.9085938,4.44089104e-15 4.61852778e-13,17.9085937 0,40 L0,40 Z" id="路径" fill="#43C267"></path>
                <path d="M47.9944848,18.2456821 L57.8020917,18.7009122 L80,41.2027129 C79.3363502,62.742757 61.7154138,80 40.0754705,80 C38.987002,80 37.9088003,79.9563269 36.8423789,79.8706499 L14.5964912,58.2065233 L19.826219,50.7918289 L26.3842106,27.0019489 L22.8774805,22.9397893 L25.2352725,22.5036143 L35.6201142,33.2953469 L47.9945004,18.245614 L47.9944848,18.2456821 Z" id="路径" fill="#30A752"></path>
                <path d="M22.7368421,22.1754386 L22.7368457,23.0985152 L23.5741775,23.0985152 C24.2895458,23.0985152 24.8708805,23.6611135 24.8822489,24.3593687 L24.8825296,24.3805652 L24.8825296,27.5087719 L25.8245614,27.5087719 L25.8245614,24.1241576 C25.8245614,23.0479195 24.9341769,22.1754428 23.8357898,22.1754428 L22.7368421,22.1754386 L22.7368421,22.1754386 Z" id="路径" fill="#D8D8D8"></path>
                <path d="M24.6752747,26.385965 L25.5703392,26.385965 L25.5703393,26.385965 C26.33085,26.3859651 26.9473684,26.987484 26.9473684,27.7294974 L26.9473684,34.245614 L23.2982456,34.245614 L23.2982456,27.7294974 L23.2982456,27.7294973 C23.2982457,26.9874863 23.9147616,26.3859649 24.6752748,26.3859649 L24.6752747,26.385965 Z" id="路径" fill="#2C343A"></path>
                <path d="M26.9472867,27.7278792 L26.9472867,34.245614 L24.9824561,34.245614 L24.9824561,27.2575218 L24.9824561,27.2574341 C24.9824561,26.7981722 25.3179197,26.4173436 25.7501151,26.3859649 C26.4174718,26.4248809 26.9473684,27.0107212 26.9473684,27.7278703 L26.9472867,27.7278792 Z" id="路径" fill="#444D56"></path>
                <path d="M15.3809979,34.4296581 L15.3940674,34.4161834 L15.3940669,34.4161839 C16.7629904,32.996991 18.6508276,32.1952129 20.6235446,32.1952051 L33.6240749,32.1952051 L38.7291151,20.7719298 L57.3847497,20.7719298 L57.3847497,32.1952051 L61.1929825,32.1952051 L61.1929825,51.0877193 L15.6466649,50.7201491 L15.6466648,50.7201491 C14.9258947,50.714355 14.3290696,50.1591826 14.27186,49.4412955 L13.4951967,39.6933402 L13.4951964,39.6933371 C13.340338,37.7499348 14.0269364,35.8334672 15.3809612,34.4296913 L15.3809979,34.4296581 Z" id="路径" fill="#FCD462"></path>
                <polygon id="路径" fill="#FFFFFF" points="40.6078114 22.7369026 36.2105263 32.5614035 55.0175439 32.2250272 55.0175439 22.7368421"></polygon>
                <path d="M55.9450688,32.5614035 C61.0201298,32.5614035 65.5049964,35.1169516 68.2105263,39.0251876 L66.3127137,40.4504317 C64.0385448,37.1276114 60.2432073,34.9509645 55.9450144,34.9509645 C48.9862361,34.9509645 43.3449419,40.6566643 43.3449419,47.6950233 C43.3449419,48.7494342 43.4715452,49.7740487 43.7103782,50.7541018 L41.2991058,50.8070175 L41.2991058,50.8070175 C41.0879866,49.7833586 40.9818793,48.7405483 40.9824585,47.6950277 C40.9824585,39.3370043 47.6813893,32.5614628 55.9450494,32.5614628 L55.9450688,32.5614035 Z" id="路径" fill="#000000"></path>
                <path d="M38.4412867,18.6163996 L48.3512257,18.2507842 L48.3512258,18.2507842 C48.5497161,18.2434542 48.7484162,18.2439184 48.9468706,18.252176 L57.5679033,18.6112505 L57.5679033,18.6112505 C58.1869346,18.6370668 58.6755645,19.1485263 58.6756269,19.7707289 L58.6756269,20.3274331 L58.6756269,20.3274331 C58.6756269,20.6348925 58.427438,20.8841372 58.121281,20.8841372 C58.121281,20.8841372 58.121281,20.8841372 58.121281,20.8841372 L37.7490926,20.8841372 L37.7490926,20.8841372 C37.5194748,20.8841372 37.3333333,20.6972039 37.3333333,20.4666093 L37.3333333,19.7707289 L37.3333333,19.7707836 C37.3333334,19.1493451 37.8228909,18.6392692 38.4412752,18.6164017 L38.4412867,18.6163996 Z M55.9026391,31.1831891 C61.5140045,31.1831891 66.4544588,34.0627401 69.3333333,38.4279974 L67.2512125,39.8890668 C64.8325993,36.1801639 60.6531095,33.7294117 55.9026158,33.7294117 C48.4203327,33.7294117 42.3546774,39.8093163 42.3546774,47.3093856 C42.3546774,48.7005922 42.5633884,49.4862367 42.951154,50.7500945 L40.3271608,50.8070175 C39.9924747,49.5115633 39.8143906,48.7096351 39.8143906,47.3093865 C39.8143906,38.4031188 47.0174236,31.1832213 55.9026454,31.1832213 L55.9026391,31.1831891 Z" id="形状" fill="#E56353"></path>
                <path d="M43.2280703,47.6013803 L43.2280703,47.6023806 C43.2280692,54.6431712 48.9364336,60.3508772 55.9780702,60.3508772 C63.0196911,60.3508783 68.7280702,54.643187 68.7280702,47.6023806 C68.7280702,47.6017124 68.7280701,47.6010442 68.72807,47.600376 L68.7280701,47.5993737 C68.7280701,40.5585831 63.0197068,34.8508772 55.9780701,34.8508772 C48.9364492,34.8508772 43.2280702,40.5585674 43.2280702,47.5993737 C43.2280702,47.6000419 43.2280702,47.6007101 43.2280703,47.6013783 L43.2280703,47.6013803 Z" id="路径" fill="#444D56"></path>
                <path d="M56,39.8596491 C60.2632554,39.8596491 63.7192982,43.3156842 63.7192982,47.5789474 C63.7192982,51.8422027 60.2632631,55.2982456 56,55.2982456 C51.7367446,55.2982455 48.2807018,51.8422105 48.2807018,47.5789474 C48.2807018,43.315692 51.7367369,39.8596491 56,39.8596491 Z M56.1378447,41.7894737 C52.8643098,41.7894737 50.2105325,44.4432587 50.2105325,47.7167859 C50.2105325,50.9903208 52.8643175,53.6440981 56.1378447,53.6440981 C59.4113797,53.6440981 62.0651569,50.9903131 62.0651569,47.7167859 C62.065157,44.4432509 59.4113719,41.7894737 56.1378447,41.7894737 Z" id="形状" fill="#FFFFFF"></path>
                <path d="M49.9649123,47.8596522 L49.9649123,47.8596531 C49.9649128,51.1927397 52.6669173,53.8947368 56.0000039,53.8947368 C59.3330905,53.8947363 62.0350877,51.1927318 62.0350877,47.8596452 L62.0350877,47.8596452 C62.0350877,44.5265586 59.3330905,41.8245614 56.0000039,41.8245614 C52.6669173,41.8245614 49.9649202,44.5265586 49.9649202,47.8596452 L49.9649123,47.8596522 Z" id="路径" fill="#1D2C30"></path>
                <path d="M27.0563186,50.7924427 C29.257089,50.7924427 30.3433069,50.7973476 30.31526,50.8070175 C29.8333707,45.300095 25.272077,40.9824561 19.7162923,40.9824561 C16.5673618,40.9824561 13.737931,42.3695884 11.7894737,44.5740428 C12.2261732,45.1023819 12.9692538,45.8238367 14.0191305,46.7386957 L27.0562642,50.7924733 L27.0563186,50.7924427 Z" id="路径" fill="#000000"></path>
                <path d="M11.5087721,51.7898758 L11.508772,51.7906762 C11.5087714,56.3633051 15.2161574,60.0701754 19.7894737,60.0701754 C24.3627668,60.0701761 28.0701754,56.3633284 28.0701754,51.7906762 C28.0701754,51.7901417 28.0701754,51.7896073 28.0701753,51.7890729 L28.0701753,51.7882712 C28.0701753,47.2156422 24.36279,43.5087719 19.7894736,43.5087719 C15.2161806,43.5087719 11.5087719,47.2156189 11.5087719,51.7882712 C11.5087719,51.7888056 11.508772,51.7893401 11.5087721,51.7898745 L11.5087721,51.7898758 Z" id="路径" fill="#444D56"></path>
                <path d="M19.7356538,40.9825035 C25.2772201,40.9825035 29.8278791,45.2988507 30.3157895,50.8070175 L28.7908425,50.8070175 C28.3085112,46.1529892 24.4384054,42.5263174 19.7356693,42.5263174 C17.026001,42.5263174 14.5926885,43.7303895 12.9246667,45.6412608 L11.7894737,44.6165569 C13.7354966,42.3872281 16.5742939,40.9824561 19.7356538,40.9824561 L19.7356538,40.9825035 Z" id="路径" fill="#E56353"></path>
                <path d="M14.877193,51.9298278 L14.877193,51.9298285 C14.8771934,54.5652888 17.0136586,56.7017544 19.6491268,56.7017544 C22.284587,56.701754 24.4210526,54.5652888 24.4210526,51.9298206 L24.4210526,51.9298206 C24.4210526,49.2943603 22.284587,47.1578947 19.6491268,47.1578947 C17.0136665,47.1578947 14.8772009,49.2943603 14.8772009,51.9298206 L14.877193,51.9298278 Z" id="路径" fill="#FFFFFF"></path>
                <path d="M16.5614037,51.7897265 L16.5614036,51.7902307 C16.5614034,53.5726253 18.0066611,55.0175439 19.7894737,55.0175439 C21.5722864,55.0175441 23.0175439,53.5726253 23.0175439,51.7902307 C23.0175439,51.7898943 23.0175438,51.7895578 23.0175437,51.7892213 L23.0175437,51.7887166 C23.0175437,50.0063221 21.5722863,48.5614035 19.7894736,48.5614035 C18.006661,48.5614035 16.5614035,50.0063221 16.5614035,51.7887166 C16.5614035,51.7890531 16.5614036,51.7893896 16.5614037,51.789726 L16.5614037,51.7897265 Z" id="路径" fill="#1D2C30"></path>
                <path d="M17.5479918,39.2982456 C18.8634428,39.2982456 19.9298246,38.2300138 19.9298246,36.9122807 C19.9298246,35.5945476 18.8634428,34.5263158 17.5479918,34.5263158 C16.2325408,34.5263158 16.2325408,39.2982456 17.5479918,39.2982456 L17.5479918,39.2982456 Z" id="路径" fill="#E56353"></path>
                <path d="M24.1403507,34.5263158 L30.5964914,34.5263158 C30.9707603,34.5263158 31.1578947,34.7134503 31.1578947,35.0877193 L31.1578947,35.0877193 C31.1578947,35.4619883 30.9707603,35.6491228 30.5964914,35.6491228 L24.1403507,35.6491228 C23.7660818,35.6491228 23.5789474,35.4619883 23.5789474,35.0877193 L23.5789474,35.0877193 C23.5789474,34.7134503 23.7660818,34.5263158 24.1403507,34.5263158 Z" id="路径" fill="#444D56"></path>
                <path d="M24.1403507,36.4912281 L30.5964914,36.4912281 C30.9707603,36.4912281 31.1578947,36.6783626 31.1578947,37.0526316 L31.1578947,37.0526316 C31.1578947,37.4269006 30.9707603,37.6140351 30.5964914,37.6140351 L24.1403507,37.6140351 C23.7660818,37.6140351 23.5789474,37.4269006 23.5789474,37.0526316 L23.5789474,37.0526316 C23.5789474,36.6783626 23.7660818,36.4912281 24.1403507,36.4912281 Z" id="路径" fill="#444D56"></path>
                <path d="M24.1403507,38.4561404 L30.5964914,38.4561404 C30.9707603,38.4561404 31.1578947,38.6432749 31.1578947,39.0175439 L31.1578947,39.0175439 C31.1578947,39.3918129 30.9707603,39.5789474 30.5964914,39.5789474 L24.1403507,39.5789474 C23.7660818,39.5789474 23.5789474,39.3918129 23.5789474,39.0175439 L23.5789474,39.0175439 C23.5789474,38.6432749 23.7660818,38.4561404 24.1403507,38.4561404 Z" id="路径" fill="#444D56"></path>
            </g>
        </g>
    </g>
</svg>