<?xml version="1.0" encoding="UTF-8"?>
<svg width="50px" height="50px" viewBox="0 0 50 50" version="1.1" xmlns="http://www.w3.org/2000/svg" xmlns:xlink="http://www.w3.org/1999/xlink">
    <!-- Generator: Sketch 55 (78076) - https://sketchapp.com -->
    <title>编组</title>
    <desc>Created with Sketch.</desc>
    <defs>
        <circle id="path-1" cx="25" cy="25" r="25"></circle>
    </defs>
    <g id="页面1" stroke="none" stroke-width="1" fill="none" fill-rule="evenodd">
        <g id="我的" transform="translate(-25.000000, -73.000000)">
            <g id="编组" transform="translate(25.000000, 73.000000)">
                <mask id="mask-2" fill="white">
                    <use xlink:href="#path-1"></use>
                </mask>
                <use id="椭圆形" fill="#CCCCCC" xlink:href="#path-1"></use>
                <g id="我-的" mask="url(#mask-2)" fill="#666666" fill-rule="nonzero">
                    <g transform="translate(12.000000, 8.000000)" id="形状">
                        <path d="M26,22.9314628 C26,23.4777597 25.5517241,23.92 24.9979716,23.92 C24.4442191,23.92 23.9959432,23.4777597 23.9959432,22.9314628 L23.9959432,22.3981729 C23.9959432,19.9268298 18.8935091,16.4279282 13.0395538,16.4279282 C8.38539554,16.4279282 2.0040568,19.3675258 2.0040568,22.2941164 L2.0040568,22.9314628 C2.0040568,23.4777597 1.55578093,23.92 1.0020284,23.92 C0.448275862,23.92 0,23.4777597 0,22.9314628 L0,21.6957912 C0,20.2129853 2.22819473,16.4149212 8.30628803,15.0101577 C6.11764706,13.5273518 4.6673428,11.0430016 4.6673428,8.22046765 C4.6673428,3.68100054 8.39858012,0 13,0 C17.6014199,0 21.3326572,3.68100054 21.3326572,8.22046765 C21.3326572,10.9909734 19.9350913,13.4363023 17.7991886,14.9321153 C23.9432049,16.2848505 26,20.2780207 26,21.6957912 L26,22.9314628 Z M19.3286519,8.20746058 C19.3286519,4.76058728 16.4939663,1.96406743 13.0000515,1.96406743 C9.50613669,1.96406743 6.6714511,4.76058728 6.6714511,8.20746058 C6.6714511,11.6543339 9.50613669,14.4508537 13.0000515,14.4508537 C16.4939663,14.4508537 19.3286519,11.6543339 19.3286519,8.20746058 Z"></path>
                    </g>
                </g>
                <text id="HSE" mask="url(#mask-2)" font-family="ArialMT, Arial" font-size="10" font-weight="normal" fill="#999999">
                    <tspan x="14.7192383" y="42">HSE</tspan>
                </text>
            </g>
        </g>
    </g>
</svg>