<?xml version="1.0" encoding="UTF-8"?>
<svg width="70px" height="70px" viewBox="0 0 70 70" version="1.1" xmlns="http://www.w3.org/2000/svg" xmlns:xlink="http://www.w3.org/1999/xlink">
    <!-- Generator: Sketch 55 (78076) - https://sketchapp.com -->
    <title>编组 2备份 3</title>
    <desc>Created with Sketch.</desc>
    <defs>
        <rect id="path-1" x="0" y="0" width="70" height="70" rx="12"></rect>
        <mask id="mask-2" maskContentUnits="userSpaceOnUse" maskUnits="objectBoundingBox" x="0" y="0" width="70" height="70" fill="white">
            <use xlink:href="#path-1"></use>
        </mask>
    </defs>
    <g id="页面1" stroke="none" stroke-width="1" fill="none" fill-rule="evenodd">
        <g id="无人机结束" transform="translate(-15.000000, -339.000000)">
            <g id="编组-2备份-3" transform="translate(15.000000, 339.000000)">
                <use id="矩形备份-5" stroke="#CCCCCC" mask="url(#mask-2)" stroke-width="4" stroke-dasharray="10,10" xlink:href="#path-1"></use>
                <g id="照片" transform="translate(21.000000, 23.000000)" fill="#999999" fill-rule="nonzero">
                    <path d="M10.2371808,11.0027286 L11.0884925,11.4559967 C11.1930395,10.5343515 11.8949983,9.79401344 12.7761805,9.68825087 L12.3281217,8.8119324 C11.2229101,8.91769497 10.3417279,9.83934026 10.2371808,11.0027286 L10.2371808,11.0027286 Z M19.5521511,12.2382407 L19.5521511,12.147587 C19.5521511,8.85383832 16.8276951,6.1795561 13.4854844,6.1795561 C10.1432738,6.1795561 7.41881777,8.85383832 7.41881777,12.147587 C7.41881777,15.4413358 10.1432738,18.115618 13.4854844,18.115618 C14.3883565,18.115618 15.2595488,17.9192018 16.0673817,17.5565873 C18.1740832,16.5745062 19.5204714,14.5499084 19.5521511,12.2533496 L19.5521511,12.2382407 Z M18.1521511,12.2687566 C18.1209359,13.7081505 17.4342024,15.0414839 16.2636338,15.9051202 C15.4520396,16.5111808 14.4999772,16.8293627 13.4854844,16.8293627 C10.9102336,16.8293627 8.81881777,14.7384536 8.81881777,12.162696 C8.81881777,9.58693841 10.9102336,7.49602932 13.4854844,7.49602932 C16.0607353,7.49602932 18.1521511,9.58693841 18.1521511,12.162696 L18.1521511,12.2687566 Z M3.46390346,21.0601507 C2.00636517,21.0601507 1.56344876,20.3883635 1.56344876,19.1279169 L1.56344876,6.73858685 C1.56344876,5.92270413 1.56344876,4.80635308 3.46390346,4.80635308 L8.45229101,4.80635308 L8.45229101,3.42972918 C8.45229101,2.61384647 8.45229101,1.49749542 9.88607905,1.49749542 L17.0998251,1.49749542 C18.5336132,1.49749542 18.5336132,2.62895541 18.5336132,3.42972918 L18.5336132,4.80635308 L23.5220007,4.80635308 C25.0288881,4.80635308 25.4224554,5.54025386 25.4224554,6.73858685 L25.4224554,12.2684586 C25.452326,12.7821625 25.8943789,13.0649577 26.1521326,13.0649577 C26.4098863,13.0649577 26.8675061,12.7519446 26.8675061,12.2080228 L26.8675061,8.00773773 C26.8675061,7.96241091 26.8675061,7.90197516 26.8525708,7.85664834 L26.8525708,5.96803095 C26.8525708,4.63844431 25.8071004,3.55060069 24.5376006,3.55060069 L20.0719482,3.55060069 L20.0719482,2.4325392 C20.0719482,1.08784362 19.0264778,0 17.756978,0 L9.24386149,0 C7.95942637,0 6.92889122,1.08784362 6.92889122,2.4325392 L6.92889122,3.55060069 L2.4483036,3.55060069 C1.16386849,3.55060069 0.133333333,4.63844431 0.133333333,5.96803095 L0.133333333,20.1251069 C0.133333333,21.4546935 1.17880378,22.5425372 2.4483036,22.5425372 L16.0095488,22.5425372 C16.532284,22.5274282 16.8399231,22.1679215 16.8399231,21.777289 C16.8399231,21.3866564 16.532284,21.0752596 16.0095488,21.0601507 L3.46390346,21.0601507 Z M27.7038825,18.37247 L24.25383,18.37247 L24.25383,14.8671961 C24.25383,14.3686011 23.8505771,13.9606597 23.3577125,13.9606597 L23.2232949,13.9606597 C22.7304302,13.9606597 22.3271773,14.3686011 22.3271773,14.8671961 L22.3271773,18.37247 L18.8771249,18.37247 C18.3842602,18.37247 17.9810073,18.7804113 17.9810073,19.2790063 L17.9810073,19.4149868 C17.9810073,19.9135818 18.3842602,20.3215231 18.8771249,20.3215231 L22.3271773,20.3215231 L22.3271773,23.826797 C22.3271773,24.325392 22.7304302,24.7333333 23.2232949,24.7333333 L23.3577125,24.7333333 C23.8505771,24.7333333 24.25383,24.325392 24.25383,23.826797 L24.25383,20.3215231 L27.7038825,20.3215231 C28.1967471,20.3215231 28.6,19.9135818 28.6,19.4149868 L28.6,19.2790063 C28.6,18.7804113 28.1967471,18.37247 27.7038825,18.37247 Z" id="形状"></path>
                </g>
            </g>
        </g>
    </g>
</svg>