<?xml version="1.0" encoding="UTF-8"?>
<svg width="9px" height="6px" viewBox="0 0 9 6" version="1.1" xmlns="http://www.w3.org/2000/svg" xmlns:xlink="http://www.w3.org/1999/xlink">
    <!-- Generator: Sketch 55 (78076) - https://sketchapp.com -->
    <title>下 拉 copy</title>
    <desc>Created with Sketch.</desc>
    <g id="页面1" stroke="none" stroke-width="1" fill="none" fill-rule="evenodd">
        <g id="工作台" transform="translate(-15.000000, -81.000000)" fill="#666666" fill-rule="nonzero">
            <g id="下-拉-copy" transform="translate(15.000000, 81.000000)">
                <path d="M0.197206712,1.28399992 L4.04602187,5.77949997 L4.0460219,5.7795 C4.15670977,5.91747773 4.32348833,5.99842559 4.50032302,6 L4.50032305,6 C4.67715775,5.99842554 4.84393631,5.91747773 4.95462418,5.7795 L8.80343934,1.28399995 L8.80343935,1.28399994 C8.99334294,1.06557591 9.0506653,0.76163548 8.95337371,0.48899993 L8.95337374,0.489000005 C8.86371533,0.221398245 8.6266035,0.0304541019 8.34613956,0 L0.654506614,0 L0.654506613,1.07768556e-10 C0.373742215,0.029728184 0.136286006,0.220949417 0.0472724332,0.489000006 L0.0472724204,0.489000041 C-0.0507500994,0.761343208 0.00602453936,1.06542192 0.195707442,1.28400005 L0.197206712,1.28399992 Z" id="路径"></path>
            </g>
        </g>
    </g>
</svg>