<?xml version="1.0" encoding="UTF-8"?>
<svg width="140px" height="140px" viewBox="0 0 140 140" version="1.1" xmlns="http://www.w3.org/2000/svg" xmlns:xlink="http://www.w3.org/1999/xlink">
    <!-- Generator: Sketch 55 (78076) - https://sketchapp.com -->
    <title>编组</title>
    <desc>Created with Sketch.</desc>
    <g id="页面1" stroke="none" stroke-width="1" fill="none" fill-rule="evenodd">
        <g id="安全学习-暂无测试" transform="translate(-118.000000, -302.000000)">
            <g id="编组" transform="translate(118.000000, 302.000000)">
                <circle id="椭圆形" fill="#408CFF" opacity="0.1" cx="70" cy="70" r="70"></circle>
                <g id="考试" transform="translate(35.000000, 35.000000)" fill-rule="nonzero">
                    <path d="M35.0000407,0 C54.2500631,0 70.0000815,15.7500183 70.0000815,35.0000407 C70.0000815,54.2500631 54.2500631,70.0000815 35.0000407,70.0000815 C15.7500183,70.0000815 0,54.2500631 0,35.0000407 C0,15.7500183 15.7500183,0 35.0000407,0 Z" id="路径" fill="#408CFF"></path>
                    <path d="M52.1111642,50.3611621 C51.7222747,49.9722727 51.1389423,49.7778283 50.5556038,49.7778283 L19.6388783,49.7778283 C19.0555445,49.7778283 18.472208,49.9722727 18.0833179,50.5556085 C17.6944285,50.7500529 17.4999841,51.3333887 17.4999841,51.9167205 L17.4999841,52.8889423 L52.8889218,52.8889423 L52.8889218,51.9167205 C52.8889218,51.3333867 52.6944774,50.7500502 52.1111416,50.3611601 L52.1111642,50.3611621 Z M31.8889336,47.0555997 C32.083378,47.4444891 32.277823,47.6389335 32.6667138,47.6389335 C33.0556032,47.8333778 33.2500476,47.8333778 33.6389356,47.8333778 L34.027825,47.8333778 L34.027825,37.5277799 L36.3611588,37.5277799 L36.3611588,47.6388952 C36.7500482,47.6388952 36.9444926,47.4444508 37.3333806,47.2500058 L37.9167144,46.666672 L49.1945205,31.1110679 C49.7778543,30.7221785 49.9723007,29.9443976 49.7778543,29.1666243 L45.8889601,19.055509 C45.6945158,18.6666196 45.3056264,18.2777288 44.9167383,17.8888387 C44.7222939,17.6943943 44.1389581,17.4999493 43.750068,17.4999493 L26.4444619,17.4999493 C26.0555725,17.4999493 25.6666817,17.6943936 25.2777916,17.8888387 C24.8889022,18.0832831 24.6944578,18.4721725 24.5000114,18.8610605 L20.4166756,29.1666585 C20.2222312,29.5555479 20.2222312,29.9444387 20.2222306,30.3333288 C20.2222306,30.7222182 20.4166749,31.111109 20.61112,31.4999991 L31.8889261,47.0556031 L31.8889336,47.0555997 Z M35.3889377,22.5555712 C38.1111615,22.5555712 40.4445021,24.8889049 40.4445021,27.6111356 C40.4445021,28.9722476 39.8611684,30.1389179 38.8889417,31.1111397 C37.9167199,32.0833616 36.555608,32.6667001 35.194496,32.6667001 C32.4722722,32.6667001 30.1389316,30.3333664 30.1389316,27.6111356 C30.3333759,24.8889118 32.4722653,22.5555712 35.3889377,22.5555712 Z" id="形状" fill="#FFFFFF"></path>
                </g>
            </g>
        </g>
    </g>
</svg>