<?xml version="1.0" encoding="UTF-8"?>
<svg width="140px" height="140px" viewBox="0 0 140 140" version="1.1" xmlns="http://www.w3.org/2000/svg" xmlns:xlink="http://www.w3.org/1999/xlink">
    <!-- Generator: Sketch 55 (78076) - https://sketchapp.com -->
    <title>编组</title>
    <desc>Created with Sketch.</desc>
    <g id="页面1" stroke="none" stroke-width="1" fill="none" fill-rule="evenodd">
        <g id="安全学习-暂无视频" transform="translate(-118.000000, -302.000000)">
            <g id="编组" transform="translate(118.000000, 302.000000)">
                <circle id="椭圆形" fill="#FF7E00" opacity="0.1" cx="70" cy="70" r="70"></circle>
                <g id="视频" transform="translate(36.000000, 38.000000)" fill-rule="nonzero">
                    <g id="a-link" transform="translate(46.999442, 38.453484)" fill="#C5DDFB">
                        <path d="M0.0293997053,0.228070175 L1.05838939,0.228070175 L1.05838939,1.25705986 L0.0293997053,1.25705986 L0.0293997053,0.228070175 Z M0.0293997053,2.28604954 L1.05838939,2.28604954 L1.05838939,3.31503923 L0.0293997053,3.31503923 L0.0293997053,2.28604954 Z" id="a"></path>
                    </g>
                    <g id="a-link" transform="translate(46.999442, 38.453484)" fill="#2589FF">
                        <path d="M0.0293997053,0.228070175 L1.05838939,0.228070175 L1.05838939,1.25705986 L0.0293997053,1.25705986 L0.0293997053,0.228070175 Z M0.0293997053,2.28604954 L1.05838939,2.28604954 L1.05838939,3.31503923 L0.0293997053,3.31503923 L0.0293997053,2.28604954 Z" id="a"></path>
                    </g>
                    <path d="M8.19918087,25.5911131 C8.19918087,23.2832362 9.13262152,21.0635584 10.8010548,19.4318748 C12.4694881,17.8001912 14.7332654,16.8814504 17.0925917,16.8814504 L58.2301293,16.8814504 C58.7666739,16.8814504 59.2958686,16.9328999 59.8177134,17.021099 C59.3987676,15.6834124 58.6490751,14.4559747 57.6200854,13.4416849 C55.9516521,11.8100012 53.6952248,10.8912604 51.3358984,10.8912604 L49.682165,10.8912604 L46.7348445,15.6760625 L41.803044,15.6687125 L41.803044,15.6760625 L32.2922393,15.6760625 L32.2848894,15.6613626 L27.3751386,15.6687125 L24.442518,10.8986103 L10.1983608,10.8986103 C7.83903448,10.8986103 5.57525718,11.8100012 3.90682391,13.4490348 C2.23839063,15.0807184 1.30494999,17.3003962 1.30494999,19.608273 L1.30494999,49.0961774 C1.30494999,51.4040543 2.24574056,53.6163821 3.91417383,55.2480657 C5.20041094,56.5049031 6.83944451,57.3354448 8.60342682,57.6514916 C8.3461794,56.8282999 8.2065308,55.9610086 8.2065308,55.0863674 L8.2065308,25.5911131 L8.19918087,25.5911131 Z" id="路径" fill="#FFC088"></path>
                    <path d="M41.803044,15.6834124 L44.7577144,10.8986103 L29.3596187,10.8986103 L32.2848894,15.6760625 L41.803044,15.6834124 Z M24.3322691,7.95863982 L20.9072035,2.36534589 C20.3339092,1.35840599 18.9962226,0.983559747 17.9304833,1.52745429 C16.9455932,2.15954796 16.6368963,3.40168551 17.2175405,4.37922571 L20.4735578,9.67852258 L23.8618739,9.67852258 C23.751625,9.07582862 23.9206733,8.44373496 24.3322691,7.95863982 L24.3322691,7.95863982 Z M43.096631,4.39392556 C43.6625753,3.40903543 43.3538784,2.18894766 42.3836882,1.54950407 C41.8691933,1.28490673 41.2664994,1.22610732 40.707905,1.38780569 C40.1493106,1.54215415 39.6789153,1.90965046 39.406968,2.3947456 L34.9014632,9.69322243 L39.8332637,9.70057236 L43.096631,4.39392556 L43.096631,4.39392556 Z" id="形状" fill="#FFC088"></path>
                    <polygon id="路径" fill="#FFC088" points="34.9014632 9.84095573 34.9088131 9.84095573 28.6172762 9.80674521 28.6246261 9.84095573"></polygon>
                    <path d="M64.5143163,19.4392247 C63.2280792,18.1750374 61.5816957,17.3444957 59.8177134,17.0284489 C59.2958686,16.9328999 58.7666739,16.8888003 58.2301293,16.8888003 L17.0925917,16.8888003 C14.7332654,16.8888003 12.4694881,17.8001912 10.8010548,19.4392247 C9.13262152,21.0709084 8.19918087,23.2905861 8.19918087,25.598463 L8.19918087,55.0863674 C8.19918087,55.9683585 8.33882947,56.8282999 8.59607689,57.6514916 C9.02237262,58.9965282 9.77206511,60.2239659 10.8084047,61.2382557 C12.476838,62.8699393 14.7406153,63.7886801 17.0999416,63.7813302 L56.1574501,63.7813302 C56.1501002,63.7813302 56.1501002,63.7739803 56.1501002,63.7739803 L55.2240094,63.7666303 C49.7262646,59.0332778 47.6756351,51.1835565 50.1084607,44.1790767 C52.5412863,37.1745969 58.9283723,32.5294435 66.0578008,32.580893 L66.0504509,33.5878329 L65.8961025,54.8511697 C65.844653,59.81237 61.9712418,63.8107299 57.2158395,63.7739803 L56.4955467,63.7666303 L56.5028966,63.7739803 L58.5094265,63.7739803 C63.2574789,63.7739803 67.1088403,59.7462206 67.1088403,54.7850204 L67.1088403,25.5911131 C67.1161902,23.2905861 66.1827496,21.0709084 64.5143163,19.4392247 Z M50.1011108,43.2456361 L33.7328249,52.6461918 C33.2918293,52.9034392 32.7405848,52.9034392 32.2995893,52.6535417 C31.8585937,52.4036443 31.5792965,51.9405989 31.5792965,51.433454 L31.5792965,32.6029428 C31.5792965,32.0957978 31.8585937,31.6327525 32.2995893,31.382855 C32.7405848,31.1329575 33.2918293,31.1329575 33.7328249,31.3902049 L50.1011108,40.7981106 C50.5421064,41.0480081 50.8214036,41.5184034 50.8214036,42.0181984 C50.8214036,42.5253433 50.5421064,42.9883886 50.1011108,43.2456361 L50.1011108,43.2456361 Z M32.2848894,15.6760625 L29.3596187,10.8986103 L28.6246261,9.69322243 L28.6172762,9.68587251 L27.8014344,8.35553584 C27.2281401,7.34859594 25.8904535,6.97374969 24.8247142,7.51764424 C24.6336161,7.64259299 24.4645678,7.79694144 24.3249192,7.95863982 C23.9133233,8.44373496 23.744275,9.07582862 23.8545239,9.67852258 C23.8986235,9.91372022 23.9794727,10.1489179 24.1117713,10.3694157 L24.4351681,10.8986103 L27.3751386,15.6687125 L32.2848894,15.6760625 L32.2848894,15.6760625 Z" id="形状" fill="#FF7E00"></path>
                    <path d="M32.2922393,15.8311457 L41.803044,15.8311457 L32.2848894,15.7969352 L32.2922393,15.8311457 Z M46.7348445,15.6834124 L49.682165,10.8986103 L49.9982118,10.3841155 C50.5641562,9.39922538 50.2554593,8.17913761 49.285269,7.53969402 C48.7707741,7.27509667 48.1680802,7.21629726 47.6094858,7.37799564 C47.0508914,7.53234409 46.5804961,7.89984041 46.3085488,8.38493555 L44.7577144,10.8986103 L41.803044,15.6834124 L46.7348445,15.6834124 L46.7348445,15.6834124 Z" id="形状" fill="#FF7E00"></path>
                    <path d="M65.8814026,54.8511697 L66.0357511,33.5878329 L66.043101,32.580893 C58.9136725,32.5294435 52.5265865,37.1745969 50.0937609,44.1790767 C47.6609353,51.1835565 49.7115647,59.0259279 55.2093096,63.7666303 L56.1354003,63.7739803 L56.4955467,63.7739803 L57.2158395,63.7813302 C61.9712418,63.8107299 65.844653,59.81237 65.8814026,54.8511697 L65.8814026,54.8511697 Z" id="路径" fill="#FD973F"></path>
                    <path d="M50.1011108,40.7981106 L33.7328249,31.3902049 C33.2918293,31.1329575 32.7405848,31.1329575 32.2995893,31.382855 C31.8585937,31.6327525 31.5792965,32.0957978 31.5792965,32.6029428 L31.5792965,51.433454 C31.5792965,51.9405989 31.8585937,52.4036443 32.2995893,52.6535417 C32.7405848,52.9034392 33.2918293,52.9034392 33.7328249,52.6461918 L50.1011108,43.2456361 C50.5421064,42.9957386 50.8214036,42.5253433 50.8214036,42.0181984 C50.8214036,41.5110535 50.5421064,41.0480081 50.1011108,40.7981106 L50.1011108,40.7981106 Z" id="路径" fill="#FFFFFF"></path>
                </g>
            </g>
        </g>
    </g>
</svg>