<?xml version="1.0" encoding="UTF-8"?>
<svg width="140px" height="140px" viewBox="0 0 140 140" version="1.1" xmlns="http://www.w3.org/2000/svg" xmlns:xlink="http://www.w3.org/1999/xlink">
    <!-- Generator: Sketch 55 (78076) - https://sketchapp.com -->
    <title>编组</title>
    <desc>Created with Sketch.</desc>
    <g id="页面1" stroke="none" stroke-width="1" fill="none" fill-rule="evenodd">
        <g id="安全学习-暂无材料" transform="translate(-118.000000, -302.000000)">
            <g id="编组" transform="translate(118.000000, 302.000000)">
                <circle id="椭圆形" fill="#FFCD2C" opacity="0.1" cx="70" cy="70" r="70"></circle>
                <g id="通知" transform="translate(38.000000, 39.000000)" fill-rule="nonzero">
                    <g id="文件夹">
                        <path d="M40.7703466,31.3750992 L0.388626478,31.3750992 L0.388626478,1.20324331 L32.4457384,1.20324331 C37.0386257,1.20324331 40.7625884,4.92720598 40.7625884,9.52009327 L40.7625884,31.3750992 L40.7703466,31.3750992 Z" id="路径" fill="#CE9F06"></path>
                        <path d="M59.7392815,56.7911444 L5.61769072,56.7911444 C2.7238614,56.7911444 0.380868222,54.4481512 0.380868222,51.5543219 L0.380868222,14.4698603 C0.380868222,11.576031 2.7238614,9.23303781 5.61769072,9.23303781 L59.7392815,9.23303781 C62.6331108,9.23303781 64.976104,11.576031 64.976104,14.4698603 L64.976104,51.5543219 C64.976104,54.4481512 62.6331108,56.7911444 59.7392815,56.7911444 Z" id="路径" fill="#CE9F06"></path>
                        <polygon id="路径" fill="#FFFFFF" points="8.41842098 12.638912 57.0549251 12.638912 57.0549251 19.9394305 8.41842098 19.9394305"></polygon>
                        <path d="M59.7392815,58.3427955 L5.61769072,58.3427955 C2.7238614,58.3427955 0.380868222,55.9998023 0.380868222,53.105973 L0.380868222,22.8565346 C0.380868222,19.9627052 2.7238614,17.6197121 5.61769072,17.6197121 L59.7392815,17.6197121 C62.6331108,17.6197121 64.976104,19.9627052 64.976104,22.8565346 L64.976104,53.105973 C64.976104,55.9998023 62.6331108,58.3427955 59.7392815,58.3427955 Z" id="路径" fill="#FFCD2C"></path>
                    </g>
                </g>
            </g>
        </g>
    </g>
</svg>