<?xml version="1.0" encoding="UTF-8"?>
<svg width="140px" height="140px" viewBox="0 0 140 140" version="1.1" xmlns="http://www.w3.org/2000/svg" xmlns:xlink="http://www.w3.org/1999/xlink">
    <!-- Generator: Sketch 55 (78076) - https://sketchapp.com -->
    <title>编组</title>
    <desc>Created with Sketch.</desc>
    <g id="页面1" stroke="none" stroke-width="1" fill="none" fill-rule="evenodd">
        <g id="安全学习-暂无文章" transform="translate(-118.000000, -302.000000)">
            <g id="编组" transform="translate(118.000000, 302.000000)">
                <circle id="椭圆形" fill="#36CFC9" opacity="0.1" cx="70" cy="70" r="70"></circle>
                <g id="文章" transform="translate(38.000000, 38.000000)" fill-rule="nonzero">
                    <path d="M52,21 L59.5290365,21 C62.5515888,21 65,23.5020629 65,26.5875583 L65,58.3664165 C65,62.0309169 62.0887105,65.0006342 58.4988015,64.9999999 C54.9088678,64.9993671 52.0006224,62.0296736 52.0000062,58.3664165 L52,21 Z" id="路径" fill="#08979C"></path>
                    <path d="M5.69252578e-05,5.59138488 C5.69252578e-05,2.5031416 2.51572954,0 5.61567668,0 L46.7043277,0 C49.8074311,0 52.3199475,2.5031416 52.3199475,5.59138488 L52.3199475,58.3511462 C52.3199475,62.0238564 55.3107373,65 59,65 L5.61561975,65 C2.51314893,65 0,62.4968584 0,59.4086151 L5.69252578e-05,5.59138488 Z" id="路径" fill="#36CFC9"></path>
                    <path d="M10.8028052,11 L19.1992246,11 C21.065656,11 21.9988716,11.9274923 21.9988716,13.7824705 L21.9988716,22.1317964 C21.9988716,23.9863577 21.065656,24.9138499 19.1992246,24.9142669 L10.8028052,24.9142669 C8.93637387,24.9142669 8.00295018,23.9867746 8.00252783,22.1317964 L8.00252783,13.7824705 C8.00085089,11.9279092 8.9342747,11.000417 10.8028052,11 L10.8028052,11 Z M29.6985312,11.695774 L40.8977495,11.695774 C42.297573,11.695774 42.9974848,12.3913395 42.9974848,13.7824705 C42.9974848,15.1740185 42.297573,15.869584 40.8977495,15.8691671 L29.6985312,15.8691671 C28.2987077,15.8691671 27.598796,15.1736016 27.598796,13.7824705 C27.598796,12.3913395 28.2987077,11.695774 29.6985312,11.695774 Z M29.6985312,20.7383341 L40.8977495,20.7383341 C42.2992498,20.7383341 43,21.4338997 43,22.8250307 C43,24.2161617 42.3000883,24.9117272 40.9002648,24.9117272 L29.6985249,24.9117272 C28.2987014,24.9117272 27.5987897,24.2161617 27.5987897,22.8250307 C27.5987897,21.4338997 28.2987014,20.7383341 29.6985249,20.7383341 L29.6985312,20.7383341 Z M10.1003719,38.8240862 L40.8977495,38.8240862 C42.2992498,38.8240862 43,39.5202835 43,40.9126717 C43,42.3042197 42.3000883,43 40.9002648,43 L10.1003656,43 C8.70054213,43 8.00042236,42.304226 8,40.9126717 C8,39.5207004 8.70011977,38.8245032 10.1003656,38.8240862 L10.1003719,38.8240862 Z M10.1003719,29.781526 L40.8977495,29.781526 C42.297573,29.781526 42.9974848,30.4770916 42.9974848,31.8682226 C42.9974848,33.2597706 42.297573,33.9553361 40.8977495,33.9549191 L10.1003719,33.9549191 C8.70054843,33.9549191 8.00042866,33.2593536 8.0000063,31.8682226 C8.0000063,30.4775148 8.70012608,29.7819493 10.1003719,29.781526 L10.1003719,29.781526 Z" id="形状" fill="#B5F5EC"></path>
                </g>
            </g>
        </g>
    </g>
</svg>