<?xml version="1.0" encoding="UTF-8"?>
<svg width="140px" height="140px" viewBox="0 0 140 140" version="1.1" xmlns="http://www.w3.org/2000/svg" xmlns:xlink="http://www.w3.org/1999/xlink">
    <!-- Generator: Sketch 55 (78076) - https://sketchapp.com -->
    <title>编组备份</title>
    <desc>Created with Sketch.</desc>
    <g id="页面1" stroke="none" stroke-width="1" fill="none" fill-rule="evenodd">
        <g id="编组备份" fill="#18B970">
            <circle id="椭圆形" opacity="0.1" cx="70" cy="70" r="70"></circle>
            <g id="信息" transform="translate(37.000000, 39.000000)" fill-rule="nonzero">
                <path d="M47.9115304,9.25280978 L7.57930081,9.25280978 C3.39589848,9.25280978 -6.34766364e-05,12.64874 -6.34766364e-05,16.8328088 L-6.34766364e-05,43.2849197 C-6.34766364e-05,47.4757996 3.39586674,50.8717108 7.57930081,50.8717108 L13.8726094,50.8717108 L13.8726094,61.240175 C13.8726094,62.6851254 15.5197139,63.5090013 16.6757377,62.6422279 L32.3700186,50.8713743 L47.9115113,50.8713743 C52.1023912,50.8713743 55.4915104,47.4754441 55.4915104,43.2913753 L55.4915104,16.8327898 C55.4915104,12.6487337 52.0955802,9.25279074 47.9115113,9.25279074 L47.9115304,9.25280978 Z M13.9957731,33.7325111 C12.0808734,33.7325111 10.5276954,32.1790093 10.5276954,30.2641096 C10.5276954,28.3492099 12.0811972,26.7960319 13.9957731,26.7960319 C15.9103491,26.7960319 17.4638509,28.3495337 17.4638509,30.2641096 C17.4638509,32.1786856 15.9106728,33.7325111 13.9957731,33.7325111 L13.9957731,33.7325111 Z M27.868719,33.7325111 C25.9538193,33.7325111 24.4006412,32.1790093 24.4006412,30.2641096 C24.4006412,28.3492099 25.954143,26.7960319 27.868719,26.7960319 C29.7832949,26.7960319 31.3367967,28.3495337 31.3367967,30.2641096 C31.3367967,32.1786856 29.7836186,33.7325111 27.868719,33.7325111 Z M41.7416648,33.7325111 C39.8267651,33.7325111 38.273587,32.1790093 38.273587,30.2641096 C38.273587,28.3492099 39.8267651,26.7960319 41.7416648,26.7960319 C43.6565645,26.7960319 45.2100663,28.3495337 45.2100663,30.2641096 C45.2100663,32.1786856 43.6562407,33.7325111 41.7416648,33.7325111 Z" id="形状"></path>
                <path d="M49.9639204,6.94073678 C54.292278,6.94073678 57.8036024,10.4520421 57.8036024,14.7804188 L57.8036024,41.5935847 C61.6906069,41.2685843 64.7400753,38.0169556 64.7400753,34.0431658 L64.7400753,10.1628108 C64.7400753,4.55655432 60.1877976,0.00426386391 54.5815284,0.00426386391 L16.8278467,0.00426386391 C12.8612171,0.00426386391 9.60991841,3.05374495 9.27742779,6.94073678 L49.9639204,6.94073678 Z" id="路径" opacity="0.5"></path>
            </g>
        </g>
    </g>
</svg>