<?xml version="1.0" encoding="UTF-8"?>
<svg width="140px" height="140px" viewBox="0 0 140 140" version="1.1" xmlns="http://www.w3.org/2000/svg" xmlns:xlink="http://www.w3.org/1999/xlink">
    <!-- Generator: Sketch 55 (78076) - https://sketchapp.com -->
    <title>编组</title>
    <desc>Created with Sketch.</desc>
    <g id="页面1" stroke="none" stroke-width="1" fill="none" fill-rule="evenodd">
        <g id="安全学习-最近" transform="translate(-118.000000, -302.000000)" fill="#18B970">
            <g id="编组" transform="translate(118.000000, 302.000000)">
                <circle id="椭圆形" opacity="0.1" cx="70" cy="70" r="70"></circle>
                <g id="最近使用2" transform="translate(16.000000, 16.000000)" fill-rule="nonzero">
                    <path d="M55,93 C34.0999809,93 17,75.9000191 17,55 C17,34.0999809 34.0999809,17 55,17 C75.9000191,17 93,34.0999809 93,55 C93,75.9000191 75.9000191,93 55,93 L55,93 Z" id="路径" opacity="0.2"></path>
                    <path d="M54.5,5.45 C81.4774789,5.45 103.549962,27.5224828 103.549962,54.4999617 C103.549962,81.4774406 81.4774789,103.549923 54.5,103.549923 C27.5225211,103.549923 5.45003832,81.4774406 5.45003832,54.4999617 C5.45003832,27.5224828 27.5225211,5.45 54.5,5.45 L54.5,5.45 Z M54.5,0 C24.5249808,5.44563968e-15 0,24.5249808 0,54.5 C1.81521323e-15,84.4750192 24.5249808,109 54.5,109 C84.4750192,109 109,84.4750192 109,54.5 C109,24.5249808 84.4750192,0 54.5,0 Z" id="形状"></path>
                    <path d="M79.3047834,74.6552978 L57.4609413,52.9310851 L57.4609413,18.715517 C57.4609413,17.3577522 56.0956996,16 54.7304707,16 C53.3652289,15.9999999 52,17.3577649 52,18.715517 L52,54.0172512 C52,54.8319076 52.2730471,55.3750161 52.8191425,55.9181119 L75.2089942,78.1853439 C76.3011838,79.271552 77.9394649,79.271552 79.0316634,78.1853439 C80.123853,77.0991358 80.3969051,75.7413748 79.3047105,74.6551705 L79.3047834,74.6552978 Z" id="路径"></path>
                </g>
            </g>
        </g>
    </g>
</svg>